<svg width="81" height="80" viewBox="0 0 81 80" fill="none" xmlns="http://www.w3.org/2000/svg">
<path d="M19.2752 37.0085C21.9975 28.8416 29.6402 23.333 38.2488 23.333H42.7518C51.3604 23.333 59.0032 28.8416 61.7255 37.0085L65.0588 47.0084C69.3757 59.9591 59.7363 73.333 46.0851 73.333H34.9155C21.2644 73.333 11.625 59.9591 15.9418 47.0085L19.2752 37.0085Z" stroke="black" stroke-width="1.5" stroke-linejoin="round"/>
<path d="M47.4533 23.3337L33.5474 23.3337L28.8771 17.9769C24.299 12.7257 29.6398 4.87691 36.3239 7.03315L39.4165 8.0308C40.1206 8.25794 40.8801 8.25794 41.5842 8.0308L44.6768 7.03315C51.3608 4.87691 56.7017 12.7258 52.1236 17.9769L47.4533 23.3337Z" stroke="black" stroke-width="1.5" stroke-linejoin="round"/>
<path d="M38.6487 59.112C37.2861 59.112 36.0541 58.804 34.9527 58.188C33.8701 57.5533 33.0114 56.676 32.3767 55.556C31.7421 54.436 31.4247 53.148 31.4247 51.692C31.4247 50.2173 31.7421 48.9293 32.3767 47.828C33.0114 46.708 33.8701 45.84 34.9527 45.224C36.0541 44.5893 37.2861 44.272 38.6487 44.272C39.9367 44.272 41.0941 44.5707 42.1207 45.168C43.1661 45.7653 43.9874 46.6147 44.5847 47.716C45.2007 48.8173 45.5087 50.1427 45.5087 51.692C45.5087 53.204 45.2101 54.52 44.6127 55.64C44.0154 56.76 43.1941 57.6187 42.1487 58.216C41.1221 58.8133 39.9554 59.112 38.6487 59.112ZM38.7327 57.852C39.8527 57.852 40.8514 57.6 41.7287 57.096C42.6247 56.5733 43.3247 55.8453 43.8287 54.912C44.3514 53.9787 44.6127 52.9053 44.6127 51.692C44.6127 50.46 44.3514 49.3867 43.8287 48.472C43.3247 47.5387 42.6247 46.82 41.7287 46.316C40.8514 45.7933 39.8527 45.532 38.7327 45.532C37.6127 45.532 36.6047 45.7933 35.7087 46.316C34.8314 46.82 34.1314 47.5387 33.6087 48.472C33.1047 49.3867 32.8527 50.46 32.8527 51.692C32.8527 52.9053 33.1047 53.9787 33.6087 54.912C34.1314 55.8453 34.8314 56.5733 35.7087 57.096C36.6047 57.6 37.6127 57.852 38.7327 57.852ZM44.6407 59V54.212L44.8927 51.664L44.6127 49.116V38.224H46.0127V59H44.6407ZM38.1727 41.836V40.772H48.9807V41.836H38.1727Z" fill="black"/>
</svg>
