<svg width="20" height="21" viewBox="0 0 20 21" fill="none" xmlns="http://www.w3.org/2000/svg">
<g id="Huge-icon/ecommerce/outline/bag-check">
<path id="Rectangle 802" d="M13.3337 5.5013C13.3337 3.66035 11.8413 2.16797 10.0003 2.16797C8.15938 2.16797 6.66699 3.66035 6.66699 5.5013" stroke="#7F7F7F" stroke-width="1.25" stroke-linecap="round" stroke-linejoin="round"/>
<path id="Rectangle 803" d="M3.80195 8.41988C4.01046 6.75179 5.42846 5.5 7.10954 5.5H12.891C14.5721 5.5 15.9901 6.75179 16.1986 8.41988L17.0319 15.0866C17.2806 17.0761 15.7293 18.8333 13.7243 18.8333H6.27621C4.27121 18.8333 2.71993 17.0761 2.96861 15.0866L3.80195 8.41988Z" stroke="#7F7F7F" stroke-width="1.25" stroke-linejoin="round"/>
<path id="Vector 1794" d="M7.5 12.1667L8.96068 13.3352C9.30892 13.6138 9.81475 13.5689 10.1084 13.2332L12.5 10.5" stroke="#7F7F7F" stroke-width="1.25" stroke-linecap="round" stroke-linejoin="round"/>
</g>
</svg>
