<svg xmlns="http://www.w3.org/2000/svg" width="22" height="20" viewBox="0 0 22 20" fill="none">
<path d="M1 5H4M11 6H17M11 10H17M11 14H14M10 19H18C19.6569 19 21 17.6569 21 16V4C21 2.34315 19.6569 1 18 1H10C8.34315 1 7 2.34315 7 4V16C7 17.6569 8.34315 19 10 19ZM2.5 19L3.3282 17.7577C3.76625 17.1006 4 16.3286 4 15.5389V2.5C4 1.67157 3.32843 1 2.5 1C1.67157 1 1 1.67157 1 2.5V15.5389C1 16.3286 1.23375 17.1006 1.6718 17.7577L2.5 19Z" stroke="#C2332A" stroke-width="1.25" stroke-linecap="round" stroke-linejoin="round"></path>
</svg>