<svg width="20" height="20" viewBox="0 0 20 20" fill="none" xmlns="http://www.w3.org/2000/svg">
<g id="Huge-icon/interface/outline/eye">
<g id="Vector">
<path d="M17.6085 8.21124C18.5749 9.22797 18.5749 10.7727 17.6085 11.7894C15.9787 13.5042 13.1796 15.8337 9.99996 15.8337C6.82036 15.8337 4.0212 13.5042 2.39138 11.7894C1.42504 10.7727 1.42504 9.22797 2.39138 8.21124C4.0212 6.49644 6.82036 4.16699 9.99996 4.16699C13.1796 4.16699 15.9787 6.49644 17.6085 8.21124Z" stroke="#FF3B30" stroke-width="1.5"/>
<path d="M12.5 10.0003C12.5 11.381 11.3807 12.5003 9.99996 12.5003C8.61925 12.5003 7.49996 11.381 7.49996 10.0003C7.49996 8.61961 8.61925 7.50033 9.99996 7.50033C11.3807 7.50033 12.5 8.61961 12.5 10.0003Z" stroke="#FF3B30" stroke-width="1.5"/>
</g>
</g>
</svg>
