<svg width="32" height="32" viewBox="0 0 32 32" fill="none" xmlns="http://www.w3.org/2000/svg">
<g id="Huge-icon/files and folder/outline/folder-search 01">
<path id="Vector" d="M12 24.0014L14 22.0014M20 19.3347C20 21.1757 18.5076 22.6681 16.6666 22.6681C14.8257 22.6681 13.3333 21.1757 13.3333 19.3347C13.3333 17.4938 14.8257 16.0014 16.6666 16.0014C18.5076 16.0014 20 17.4938 20 19.3347ZM26.6666 9.33464V10.668H5.33329V6.66797C5.33329 4.45883 7.12415 2.66797 9.33329 2.66797H12.7588C13.6496 2.66797 14.5148 2.96528 15.2174 3.51277L16.4713 4.48984C17.174 5.03733 18.0392 5.33464 18.9299 5.33464H22.6666C24.8758 5.33464 26.6666 7.1255 26.6666 9.33464ZM4.63192 10.668H27.368C29.0657 10.668 30.3312 12.2333 29.9755 13.8934L27.57 25.1188C27.0431 27.5778 24.8699 29.3346 22.3551 29.3346H9.64484C7.12997 29.3346 4.95683 27.5778 4.42989 25.1188L2.02445 13.8934C1.66872 12.2333 2.9342 10.668 4.63192 10.668Z" stroke="#272727" stroke-width="2" stroke-linecap="round" stroke-linejoin="round"/>
</g>
</svg>
