<svg xmlns="http://www.w3.org/2000/svg" width="24" height="24" viewBox="0 0 24 24" fill="none">
<path d="M8 18.7854C6.58869 18.9433 4.94575 19.8663 3.73627 20.6791C3.0279 21.1551 2 20.6602 2 19.8067V10.1373C2 9.55212 2.25538 8.9954 2.72215 8.64246C3.50424 8.05111 4.82254 7.13481 6.1768 6.55179C6.55421 6.38931 6.93442 6.25271 7.3066 6.15625M8 18.7854C11.3183 18.4139 12.6817 22.3469 16 21.9755M8 18.7854V11.2638M16 21.9755C17.8673 21.7665 20.14 20.2184 21.2778 19.358C21.7446 19.0051 22 18.4484 22 17.8632V8.19377C22 7.34032 20.9721 6.84542 20.2637 7.32144C19.8682 7.58723 19.4263 7.86481 18.9614 8.12355M16 21.9755V12.7302" stroke="#C2332A" stroke-width="1.25"></path>
<path d="M11.6622 8.92094L10.147 8.41587C9.71086 8.27048 9.6856 7.66306 10.1082 7.48196L14.7505 5.4924C15.1653 5.3146 15.5848 5.73407 15.407 6.14893L13.4175 10.7912C13.2363 11.2138 12.6289 11.1886 12.4835 10.7524L11.9785 9.23717C11.9287 9.08787 11.8115 8.97071 11.6622 8.92094Z" stroke="#C2332A" stroke-width="1.225"></path>
<path d="M18.8994 8C18.8994 11.3137 16.2131 14 12.8994 14C9.58571 14 6.89941 11.3137 6.89941 8C6.89941 4.68629 9.58571 2 12.8994 2C16.2131 2 18.8994 4.68629 18.8994 8Z" stroke="#C2332A" stroke-width="1.225"></path>
</svg>