<svg width="81" height="80" viewBox="0 0 81 80" fill="none" xmlns="http://www.w3.org/2000/svg">
<path d="M47.1663 42.4998C47.1663 39.2782 44.1816 36.6665 40.4997 36.6665C36.8178 36.6665 33.833 39.2782 33.833 42.4998C33.833 45.7215 36.8178 48.3332 40.4997 48.3332C44.1816 48.3332 47.1663 50.9448 47.1663 54.1665C47.1663 57.3882 44.1816 59.9998 40.4997 59.9998C36.8178 59.9998 33.833 57.3882 33.833 54.1665" stroke="black" stroke-width="1.5" stroke-linecap="round"/>
<path d="M40.5 31.6665V36.6665" stroke="black" stroke-width="1.5" stroke-linecap="round" stroke-linejoin="round"/>
<path d="M40.5 60V65" stroke="black" stroke-width="1.5" stroke-linecap="round" stroke-linejoin="round"/>
<path d="M19.2752 37.009C21.9975 28.8421 29.6402 23.3335 38.2488 23.3335H42.7518C51.3604 23.3335 59.0032 28.8421 61.7255 37.0089L65.0588 47.0089C69.3757 59.9596 59.7363 73.3335 46.0851 73.3335H34.9155C21.2644 73.3335 11.625 59.9596 15.9418 47.0089L19.2752 37.009Z" stroke="black" stroke-width="1.5" stroke-linejoin="round"/>
<path d="M47.4533 23.3332L33.5474 23.3332L28.8771 17.9764C24.299 12.7253 29.6398 4.87642 36.3239 7.03266L39.4165 8.03031C40.1206 8.25745 40.8801 8.25745 41.5842 8.03031L44.6768 7.03266C51.3608 4.87643 56.7017 12.7253 52.1236 17.9764L47.4533 23.3332Z" stroke="black" stroke-width="1.5" stroke-linejoin="round"/>
</svg>
