<svg width="25" height="25" viewBox="0 0 25 25" fill="none" xmlns="http://www.w3.org/2000/svg">
<g id="Huge-icon/user/outline/users 02">
<ellipse id="Ellipse 295" cx="12.5" cy="17" rx="6" ry="2.5" stroke="#28303F" stroke-width="1.5" stroke-linejoin="round"/>
<circle id="Ellipse 296" cx="12.5" cy="8.5" r="3" stroke="#28303F" stroke-width="1.5" stroke-linejoin="round"/>
<path id="Subtract" fill-rule="evenodd" clip-rule="evenodd" d="M6.94547 13.7617C5.70689 13.8133 4.56913 14.0364 3.68592 14.3897C3.18122 14.5915 2.72245 14.8507 2.37759 15.1768C2.03115 15.5045 1.75 15.9514 1.75 16.5002C1.75 17.0491 2.03115 17.496 2.37759 17.8236C2.72245 18.1498 3.18122 18.4089 3.68592 18.6108C4.18571 18.8107 4.76701 18.969 5.40197 19.078C4.90834 18.5455 4.59852 17.9506 4.51985 17.3197C4.42341 17.2872 4.33104 17.2533 4.24301 17.2181C3.84289 17.058 3.56943 16.8862 3.40826 16.7338C3.2498 16.584 3.24999 16.5048 3.25 16.5003L3.25 16.5002L3.25 16.5002C3.24999 16.4956 3.2498 16.4165 3.40826 16.2667C3.56943 16.1142 3.84289 15.9424 4.24301 15.7824C4.44597 15.7012 4.67201 15.6268 4.91787 15.5611C5.33157 14.8712 6.03447 14.2562 6.94547 13.7617Z" fill="#28303F"/>
<path id="Subtract_2" fill-rule="evenodd" clip-rule="evenodd" d="M20.4803 17.3197C20.4016 17.9506 20.0918 18.5455 19.5982 19.078C20.2331 18.969 20.8144 18.8107 21.3142 18.6108C21.8189 18.4089 22.2777 18.1498 22.6226 17.8236C22.969 17.496 23.2502 17.0491 23.2502 16.5002C23.2502 15.9514 22.969 15.5045 22.6226 15.1768C22.2777 14.8507 21.8189 14.5916 21.3142 14.3897C20.431 14.0364 19.2933 13.8133 18.0547 13.7617C18.9657 14.2562 19.6686 14.8712 20.0823 15.5611C20.3281 15.6268 20.5542 15.7012 20.7571 15.7824C21.1573 15.9424 21.4307 16.1142 21.5919 16.2667C21.7504 16.4165 21.7502 16.4956 21.7502 16.5002V16.5002V16.5003C21.7502 16.5048 21.7504 16.584 21.5919 16.7338C21.4307 16.8862 21.1573 17.058 20.7571 17.2181C20.6691 17.2533 20.5767 17.2872 20.4803 17.3197Z" fill="#28303F"/>
<path id="Subtract_3" fill-rule="evenodd" clip-rule="evenodd" d="M17.0145 10.6522C16.7946 11.1126 16.5063 11.5341 16.1628 11.9036C16.5587 12.1243 17.0147 12.25 17.5001 12.25C19.0188 12.25 20.2501 11.0188 20.2501 9.5C20.2501 7.98122 19.0188 6.75 17.5001 6.75C17.3958 6.75 17.2929 6.7558 17.1916 6.76711C17.3637 7.23272 17.4684 7.73096 17.4939 8.25001C17.496 8.25 17.498 8.25 17.5001 8.25C18.1904 8.25 18.7501 8.80964 18.7501 9.5C18.7501 10.1904 18.1904 10.75 17.5001 10.75C17.3278 10.75 17.1637 10.7152 17.0145 10.6522Z" fill="#28303F"/>
<path id="Subtract_4" fill-rule="evenodd" clip-rule="evenodd" d="M7.80845 6.76711C7.70719 6.7558 7.60427 6.75 7.5 6.75C5.98122 6.75 4.75 7.98122 4.75 9.5C4.75 11.0188 5.98122 12.25 7.5 12.25C7.98537 12.25 8.44138 12.1243 8.83721 11.9036C8.49374 11.5341 8.20549 11.1126 7.9856 10.6522C7.83631 10.7152 7.67222 10.75 7.5 10.75C6.80964 10.75 6.25 10.1904 6.25 9.5C6.25 8.80964 6.80964 8.25 7.5 8.25C7.50205 8.25 7.50409 8.25 7.50614 8.25001C7.5317 7.73096 7.63641 7.23272 7.80845 6.76711Z" fill="#28303F"/>
</g>
</svg>
