<svg width="21" height="20" viewBox="0 0 21 20" fill="none" xmlns="http://www.w3.org/2000/svg">
<g id="Huge-icon/finance and payment/outline/wallet">
<path id="Rectangle 830" d="M19 5H4.33333C3.22876 5 2.33333 5.89543 2.33333 7V16.3333C2.33333 17.4379 3.22876 18.3333 4.33333 18.3333H17C18.1046 18.3333 19 17.4379 19 16.3333V5Z" stroke="#3B7ACC" stroke-width="1.5" stroke-linejoin="round"/>
<path id="Rectangle 831" d="M19 3.66669C19 2.56212 18.1046 1.66669 17 1.66669H9.33333C8.22876 1.66669 7.33333 2.56212 7.33333 3.66669V5.00002H19V3.66669Z" stroke="#3B7ACC" stroke-width="1.5" stroke-linejoin="round"/>
<path id="Rectangle 828" d="M2.33398 10L2.33398 13.3333L5.66732 13.3333C6.58779 13.3333 7.33399 12.5871 7.33399 11.6667V11.6667C7.33399 10.7462 6.58779 10 5.66732 10L2.33398 10Z" stroke="#3B7ACC" stroke-width="1.5" stroke-linejoin="round"/>
</g>
</svg>
