<svg width="80" height="80" viewBox="0 0 80 80" fill="none" xmlns="http://www.w3.org/2000/svg">
<g id="Airport Service Icon" clip-path="url(#clip0_2673_44712)">
<path id="Vector" d="M0 5C0 2.23437 1.7875 0 4 0H6C11.525 0 16 5.59375 16 12.5V57.5C16 58.875 16.9 60 18 60H76C78.2125 60 80 62.2344 80 65C80 67.7656 78.2125 70 76 70H67.6625C67.8875 70.7812 68 71.625 68 72.5C68 76.6406 65.3125 80 62 80C58.6875 80 56 76.6406 56 72.5C56 71.625 56.125 70.7812 56.3375 70H31.6625C31.8875 70.7812 32 71.625 32 72.5C32 76.6406 29.3125 80 26 80C22.6875 80 20 76.6406 20 72.5C20 71.625 20.125 70.7812 20.3375 70H18C12.475 70 8 64.4062 8 57.5V12.5C8 11.125 7.1 10 6 10H4C1.7875 10 0 7.76562 0 5ZM54 15V8.75C54 8.0625 53.55 7.5 53 7.5H43C42.45 7.5 42 8.0625 42 8.75V15H54ZM36 15V8.75C36 3.92188 39.1375 0 43 0H53C56.8625 0 60 3.92188 60 8.75V50H36V15ZM64 50V15H66C69.3125 15 72 18.3594 72 22.5V42.5C72 46.6406 69.3125 50 66 50H64ZM30 15H32V50H30C26.6875 50 24 46.6406 24 42.5V22.5C24 18.3594 26.6875 15 30 15Z" fill="white"/>
<path id="Vector_2" d="M54 15V8.75C54 8.0625 53.55 7.5 53 7.5H43C42.45 7.5 42 8.0625 42 8.75V15H54ZM36 15V8.75C36 3.92188 39.1375 0 43 0H53C56.8625 0 60 3.92188 60 8.75V50H36V15ZM64 50V15H66C69.3125 15 72 18.3594 72 22.5V42.5C72 46.6406 69.3125 50 66 50H64ZM30 15H32V50H30C26.6875 50 24 46.6406 24 42.5V22.5C24 18.3594 26.6875 15 30 15Z" fill="#272727"/>
</g>
<defs>
<clipPath id="clip0_2673_44712">
<rect width="80" height="80" fill="white"/>
</clipPath>
</defs>
</svg>
