<svg xmlns="http://www.w3.org/2000/svg" viewBox="174.064 121.129 40 34" width="40" height="34">
  <path id="Vector" d="M 191.564 121.129 L 214.064 121.129 L 214.064 142.986 L 209.494 142.986 L 199.396 125.986 L 197.384 129.344 C 196.668 128.269 195.815 127.308 194.826 126.46 C 193.836 125.613 192.749 124.905 191.564 124.335 L 191.564 121.129 Z M 195.568 132.418 L 186.427 147.786 C 186.05 147.824 185.679 147.843 185.314 147.843 C 183.765 147.843 182.306 147.559 180.939 146.989 C 179.572 146.42 178.38 145.636 177.365 144.637 C 176.349 143.637 175.548 142.48 174.962 141.165 C 174.377 139.849 174.077 138.432 174.064 136.915 C 174.064 135.409 174.357 133.993 174.943 132.665 C 175.529 131.336 176.336 130.179 177.365 129.192 C 178.393 128.206 179.585 127.428 180.939 126.859 C 182.293 126.29 183.752 125.999 185.314 125.986 C 186.421 125.986 187.489 126.138 188.517 126.441 C 189.546 126.745 190.509 127.175 191.408 127.732 C 192.306 128.288 193.107 128.958 193.81 129.743 C 194.513 130.527 195.099 131.419 195.568 132.418 Z M 185.685 155.129 L 199.396 132.057 L 213.107 155.129 L 185.685 155.129 Z" fill="#6295D6"/>
</svg>