<svg width="89" height="89" viewBox="0 0 89 89" fill="none" xmlns="http://www.w3.org/2000/svg">
<path d="M10.4336 20.3108C10.4336 13.0372 16.33 7.14075 23.6037 7.14075H46.6513L69.6989 30.1884V59.821C69.6989 67.0947 63.8025 72.9911 56.5288 72.9911H23.6037C16.33 72.9911 10.4336 67.0947 10.4336 59.821V20.3108Z" fill="black"/>
<path d="M69.6961 30.1884L46.6484 7.14075V17.0183C46.6484 24.2919 52.5449 30.1884 59.8185 30.1884H69.6961Z" fill="#A9A9A9"/>
<path fill-rule="evenodd" clip-rule="evenodd" d="M24.4258 36.7733C24.4258 35.4095 25.5314 34.304 26.8952 34.304L40.0652 34.304C41.429 34.304 42.5346 35.4095 42.5346 36.7733C42.5346 38.1371 41.429 39.2427 40.0652 39.2427H26.8952C25.5314 39.2427 24.4258 38.1371 24.4258 36.7733Z" fill="white"/>
<path fill-rule="evenodd" clip-rule="evenodd" d="M24.4258 53.236C24.4258 51.8722 25.5314 50.7666 26.8952 50.7666H53.2353C54.5991 50.7666 55.7047 51.8722 55.7047 53.236C55.7047 54.5998 54.5991 55.7054 53.2353 55.7054H26.8952C25.5314 55.7054 24.4258 54.5998 24.4258 53.236Z" fill="white"/>
<ellipse cx="62.5135" cy="62.5148" rx="26.0408" ry="26.0408" fill="#272727"/>
<path fill-rule="evenodd" clip-rule="evenodd" d="M56.1507 52.2849C56.5722 49.8644 57.1364 47.6888 57.807 45.8445C58.5707 43.7445 59.4407 42.162 60.3232 41.1356C61.2103 40.1038 61.9561 39.7983 62.5134 39.7983C63.0707 39.7983 63.8165 40.1038 64.7036 41.1356C65.5861 42.162 66.4561 43.7445 67.2197 45.8445C67.8904 47.6888 68.4546 49.8644 68.8761 52.2849C66.8373 52.0903 64.7047 51.9876 62.5134 51.9876C60.3221 51.9876 58.1895 52.0903 56.1507 52.2849ZM52.7115 52.7129C53.1746 49.7238 53.8454 47.0115 54.6828 44.7085C55.5234 42.3968 56.5636 40.4092 57.8024 38.9684C59.0364 37.5329 60.6227 36.474 62.5134 36.474C64.4041 36.474 65.9904 37.5329 67.2244 38.9684C68.4632 40.4092 69.5034 42.3968 70.344 44.7085C71.1814 47.0115 71.8522 49.7238 72.3153 52.7129C75.3043 53.1759 78.0166 53.8467 80.3197 54.6842C82.6313 55.5248 84.619 56.565 86.0598 57.8037C87.4952 59.0378 88.5541 60.624 88.5541 62.5147C88.5541 64.4054 87.4952 65.9917 86.0598 67.2258C84.619 68.4645 82.6313 69.5047 80.3197 70.3453C78.0166 71.1828 75.3043 71.8536 72.3153 72.3166C71.8522 75.3057 71.1814 78.018 70.344 80.321C69.5034 82.6327 68.4632 84.6203 67.2244 86.0611C65.9904 87.4966 64.4041 88.5555 62.5134 88.5555C60.6227 88.5555 59.0364 87.4966 57.8024 86.0611C56.5636 84.6203 55.5234 82.6327 54.6828 80.321C53.8454 78.018 53.1746 75.3057 52.7115 72.3166C49.7225 71.8536 47.0102 71.1828 44.7071 70.3453C42.3955 69.5047 40.4078 68.4645 38.967 67.2258C37.5316 65.9917 36.4727 64.4054 36.4727 62.5147C36.4727 60.624 37.5316 59.0378 38.967 57.8037C40.4078 56.565 42.3955 55.5248 44.7071 54.6842C47.0102 53.8467 49.7225 53.1759 52.7115 52.7129ZM52.2835 68.8774C49.863 68.456 47.6874 67.8917 45.8432 67.2211C43.7432 66.4575 42.1607 65.5874 41.1342 64.705C40.1024 63.8179 39.797 63.072 39.797 62.5147C39.797 61.9575 40.1024 61.2116 41.1342 60.3245C42.1607 59.4421 43.7432 58.572 45.8432 57.8084C47.6874 57.1377 49.863 56.5735 52.2835 56.1521C52.089 58.1909 51.9863 60.3234 51.9863 62.5147C51.9863 64.706 52.089 66.8386 52.2835 68.8774ZM55.6739 69.3543C55.4385 67.1979 55.3106 64.902 55.3106 62.5147C55.3106 60.1275 55.4385 57.8316 55.6739 55.6752C57.8303 55.4398 60.1261 55.312 62.5134 55.312C64.9007 55.312 67.1965 55.4398 69.3529 55.6752C69.5883 57.8316 69.7162 60.1275 69.7162 62.5147C69.7162 64.902 69.5883 67.1979 69.3529 69.3543C67.1965 69.5897 64.9007 69.7175 62.5134 69.7175C60.1261 69.7175 57.8303 69.5897 55.6739 69.3543ZM56.1507 72.7446C56.5722 75.1651 57.1364 77.3407 57.807 79.185C58.5707 81.285 59.4407 82.8675 60.3232 83.8939C61.2103 84.9257 61.9561 85.2311 62.5134 85.2311C63.0707 85.2311 63.8165 84.9257 64.7036 83.8939C65.5861 82.8675 66.4561 81.285 67.2197 79.185C67.8904 77.3407 68.4546 75.1651 68.8761 72.7446C66.8373 72.9392 64.7047 73.0419 62.5134 73.0419C60.3221 73.0419 58.1895 72.9392 56.1507 72.7446ZM72.7433 68.8774C75.1638 68.456 77.3394 67.8917 79.1836 67.2211C81.2836 66.4575 82.8661 65.5874 83.8926 64.705C84.9244 63.8179 85.2298 63.072 85.2298 62.5147C85.2298 61.9575 84.9244 61.2116 83.8926 60.3245C82.8661 59.4421 81.2836 58.572 79.1836 57.8084C77.3394 57.1378 75.1638 56.5735 72.7433 56.1521C72.9378 58.1909 73.0405 60.3234 73.0405 62.5147C73.0405 64.706 72.9378 66.8386 72.7433 68.8774Z" fill="white"/>
</svg>
