<svg width="43" height="51" viewBox="0 0 43 51" fill="none" xmlns="http://www.w3.org/2000/svg">
<g id="lock">
<path id="Subtract" fill-rule="evenodd" clip-rule="evenodd" d="M12.8359 13.1667C12.8359 8.3802 16.7161 4.5 21.5026 4.5C26.2891 4.5 30.1693 8.3802 30.1693 13.1667L32.1693 13.1667C32.8529 13.1667 33.5214 13.231 34.1693 13.3539V13.1667C34.1693 6.17106 28.4982 0.5 21.5026 0.5C14.507 0.5 8.83594 6.17106 8.83594 13.1667V13.3539C9.48377 13.231 10.1523 13.1667 10.8359 13.1667L12.8359 13.1667Z" fill="#3B7ACC"/>
<path id="Rectangle 324" opacity="0.4" d="M0.167969 23.8334C0.167969 17.9424 4.9436 13.1667 10.8346 13.1667H32.168C38.059 13.1667 42.8346 17.9424 42.8346 23.8334V39.8334C42.8346 45.7245 38.059 50.5001 32.168 50.5001H10.8346C4.9436 50.5001 0.167969 45.7245 0.167969 39.8334V23.8334Z" fill="#3B7ACC"/>
<path id="Ellipse 332" d="M26.8346 31.8333C26.8346 34.7789 24.4468 37.1667 21.5013 37.1667C18.5558 37.1667 16.168 34.7789 16.168 31.8333C16.168 28.8878 18.5558 26.5 21.5013 26.5C24.4468 26.5 26.8346 28.8878 26.8346 31.8333Z" fill="#3B7ACC"/>
</g>
</svg>
