<svg width="19" height="16" viewBox="0 0 19 16" fill="none" xmlns="http://www.w3.org/2000/svg">
<g id="twitter">
<path id="Vector" d="M12.786 0C10.6821 0 8.97661 1.79086 8.97661 4C8.97661 4.33382 9.01555 4.65809 9.08893 4.96808C7.06601 4.96808 4.01904 4.55908 1.47434 2.00961C1.13596 1.67059 0.511985 1.89726 0.535457 2.37567C0.912582 10.0627 4.20467 12.3049 5.9 12.4444C4.80525 13.5257 3.215 14.3791 1.61479 14.7622C1.19246 14.8633 1.08814 15.3256 1.5011 15.4599C2.64613 15.8323 4.28507 15.9758 5.16725 16C11.4081 16 16.4805 10.7471 16.5934 4.22229C17.4128 3.68945 17.9376 2.5325 18.2325 1.71291C18.3043 1.5133 17.9772 1.28073 17.7814 1.36226C17.1693 1.61708 16.3922 1.67749 15.7303 1.46181C15.0317 0.569266 13.9721 0 12.786 0Z" fill="white"/>
</g>
</svg>
