<svg width="43" height="50" viewBox="0 0 43 50" fill="none" xmlns="http://www.w3.org/2000/svg">
<g id="Vector">
<path id="Vector_2" d="M21.5 0C27.3012 0 32 4.475 32 10C32 15.525 27.3012 20 21.5 20C15.6987 20 11 15.525 11 10C11 4.475 15.6987 0 21.5 0ZM32 26.35C32 29 31.265 35.175 26.2513 42.075L24.125 30L26.5925 25.3C24.965 25.125 23.2587 25 21.5 25C19.7412 25 18.035 25.125 16.4075 25.3L18.875 30L16.7487 42.075C11.735 35.175 11 29 11 26.35C4.72625 28.1 0.5 31.25 0.5 35V45H42.5V35C42.5 31.25 38.3 28.1 32 26.35Z" fill="#6295D6"/>
</g>
</svg>
