<svg width="40" height="40" viewBox="0 0 40 40" fill="none" xmlns="http://www.w3.org/2000/svg">
<path d="M2.10531 16.625V17.25H2.50005V17.875H2.89478V17.25H3.28952V16.625H3.68426V16H4.07899V15.375H4.47373V14.75H4.86847V14.125H4.34215V13.5H4.0132V12.875H2.82899V13.5H3.61847V14.125H3.22373V14.75H2.82899V15.375H2.43426V14.75H2.10531C1.97373 15.25 1.84215 15.8125 1.71057 16.3125V16.5625H2.10531V16.625ZM6.64478 7.1875L6.44741 7.375H6.64478V7.1875Z" fill="white"/>
<path d="M9.73685 4.9375H9.34211V5.5625H8.94737V6.1875H8.55264V6.8125H8.1579V7.4375H7.76316V6.8125H7.36843V6.5L6.97369 6.875V7.4375H7.36843V8.0625H7.76316V8.6875H7.36843V9.3125H6.97369V9.9375H6.57895V9.3125H6.25001V8.6875H5.92106V8.0625C5.78948 8.1875 5.6579 8.375 5.52632 8.5V8.6875H5.39474C5.26316 8.75 5.19737 8.8125 5.13159 8.9375V9.25H4.86843C4.80264 9.3125 4.80264 9.375 4.73685 9.4375V9.8125H4.47369C4.34211 10 4.21053 10.25 4.07895 10.4375H4.4079V11.0625H4.80264V11.6875H5.19737V12.3125H5.59211V12.9375H5.92106V12.3125H6.3158V11.6875H6.71053V11.0625H7.10527V10.4375H7.50001V9.8125H7.89474V9.1875H8.28948V9.8125H8.55264V10.4375H8.94737V11.0625H9.34211V11.6875H9.73685V12.3125H10.1316V11.0625H9.73685V10.4375H10.1316V8.625H9.73685V9.25H9.34211V9.875H8.94737V9.25H8.55264V8.625H8.1579V8H8.55264V7.375H8.94737V6.75H9.34211V7.375H9.73685V8H10.1316V6.125H9.73685V5.5H10.1316V4.4375C10 4.5 9.86843 4.625 9.73685 4.6875V4.9375ZM5.92106 11.0625H5.52632V9.8125H5.92106V11.0625ZM1.71053 22.125V21.5H2.10527V20.875H2.50001V20.25H2.89474V19.625H2.43422V19H2.10527V18.375H1.71053V17.75H1.44737C1.38159 18.5625 1.3158 19.25 1.3158 20C1.3158 20.75 1.38159 21.4375 1.44737 22.125H1.71053ZM9.73685 18.4375H9.34211V19.0625H8.94737V19.6875H8.55264V20.3125H8.94737V20.9375H9.34211V21.5625H9.73685V22.125H10.0658V17.875H9.73685V18.4375Z" fill="white"/>
<path d="M6.24996 7.5625C6.11838 7.6875 5.9868 7.875 5.85522 8H6.24996V7.5625ZM6.44733 32.625L6.6447 32.8125V32.625H6.44733ZM5.92101 32C6.05259 32.125 6.18417 32.3125 6.31575 32.4375V32H5.92101Z" fill="white"/>
<path d="M9.73689 34.4375V33.8125H10.1316V31.9375H9.73689V32.5625H9.34215V33.1875H8.94741V32.5625H8.55268V31.9375H8.15794V31.3125H8.55268V30.6875H8.94741V30.0625H9.34215V30.6875H9.73689V31.3125H10.1316V29.4375H9.73689V28.8125H10.1316V27.5625H9.73689V28.1875H9.34215V28.8125H8.94741V29.4375H8.55268V30.0625H8.15794V30.6875H7.7632V30.0625H7.36847V29.4375H6.97373V28.8125H6.57899V28.1875H6.25004V27.5625H5.9211V26.9375H5.52636V27.5625H5.13162V28.1875H4.73689V28.8125H4.34215V29.4375H4.07899C4.21057 29.625 4.34215 29.875 4.47373 30.0625H4.73689V30.4375C4.80268 30.5 4.80268 30.5625 4.86847 30.625H5.13162V30.9375C5.19741 31.1875 5.2632 31.25 5.39478 31.375H5.52636V31.5625C5.65794 31.6875 5.78952 31.875 5.9211 32V31.375H6.31583V30.75H6.71057V30.125H7.10531V30.75H7.50004V31.375H7.89478V32H7.50004V32.625H7.10531V33.1875L7.50004 33.5625V33.25H7.89478V32.625H8.28952V33.25H8.55268V33.875H8.94741V34.5H9.34215V35.125H9.73689V35.375C9.86847 35.4375 10 35.5625 10.1316 35.625V34.5L9.73689 34.4375ZM5.9211 30.125H5.52636V28.875H5.9211V30.125ZM9.73689 23.375H9.34215V22.75H8.94741V22.125H8.55268V22.75H8.15794V23.375H7.82899V24H7.43426V24.625H7.03952V25.25H6.64478V25.8125H7.03952V26.4375H7.43426V27.0625H8.55268V26.4375H7.82899V25.8125H8.15794V25.25H8.55268V24.625H8.94741V25.25H9.34215V25.8125H9.73689V26.4375H10.0658V25.25H9.73689V24.625H10.0658V24H9.73689V23.375ZM9.73689 14.1875H9.34215V14.75H8.94741V15.375H8.55268V14.75H8.15794V14.1875H7.82899V13.5625H8.55268V12.9375H7.43426V13.5625H7.03952V14.1875H6.64478V14.75H7.03952V15.375H7.43426V16H7.82899V16.625H8.15794V17.25H8.55268V17.875H8.94741V17.25H9.34215V16.625H9.73689V16H10.0658V15.375H9.73689V14.75H10.0658V13.5625H9.73689V14.1875ZM2.43426 24.625H2.82899V25.25H3.22373V25.875H3.61847V26.5H2.82899V27.125H3.94741V26.5H4.34215V25.875H4.73689V25.25H4.34215V24.625H4.0132V24H3.61847V23.375H3.22373V22.75H2.82899V22.125H2.43426V22.75H2.10531V23.375H1.71057V23.625C1.84215 24.1875 1.97373 24.6875 2.10531 25.1875H2.43426V24.625ZM6.64478 16.625H6.25004V16H5.9211V15.375H5.52636V16H5.13162V16.625H4.73689V17.25H4.34215V17.875H4.0132V18.5H3.61847V21.625H4.0132V22.25H4.40794V22.875H4.80268V23.5H5.19741V24.125H5.59215V24.75H5.9211V24.125H6.31583V23.5H6.71057V22.875H7.10531V22.25H7.50004V21.625H7.89478V18.5H7.50004V17.875H7.10531V17.25H6.71057L6.64478 16.625ZM4.34215 19.9375V20.3125H4.0132V19.6875H4.40794V19.9375H4.34215ZM7.03952 20.0625V19.6875H7.43426V20.3125H7.03952V20.0625ZM5.52636 16.625H5.9211V17.25H5.52636V16.625ZM5.9211 23.375H5.52636V22.75H5.9211V23.375ZM6.64478 19.0625H6.25004V19.6875H5.9211V20.3125H6.31583V20.9375H6.71057V22.1875H6.25004V21.5625H5.9211V20.9375H5.52636V21.5625H5.13162V22.1875H4.73689V20.9375H5.13162V20.3125H5.52636V19.6875H5.13162V19.0625H4.73689V17.8125H5.13162V18.4375H5.52636V19.0625H5.9211V18.4375H6.31583V17.8125H6.71057L6.64478 19.0625Z" fill="white"/>
<path d="M3.73675 9.4375C3.67096 9.5625 3.53938 9.6875 3.47359 9.8125H3.73675V9.4375ZM4.13148 9.25V8.9375C4.06569 9.0625 3.9999 9.125 3.86832 9.25H4.13148ZM4.52622 8.625V8.4375C4.46043 8.5 4.46043 8.5625 4.39464 8.625H4.52622ZM3.01306 19.9375V20.3125H3.34201V19.6875H3.01306V19.9375ZM8.73675 10.5H9.13148V11.125H8.73675V10.5ZM5.2499 8.625V9.25H5.64464V9.875H6.03938V9.25H6.43411V8.625H6.82885V8H6.43411V7.375H6.03938V6.8125L5.64464 7.1875V7.375H5.44727L5.2499 7.5625V8H4.92096V8.625H5.2499ZM8.73675 5.5625H9.13148V6.1875H8.73675V5.5625ZM8.73675 7.375H8.34201V6.8125H7.94727V7.375H7.55253V8H7.1578V8.625H7.55253V9.25H7.94727V9.875H8.34201V9.25H8.73675V8.625H9.06569V8H8.73675V7.375ZM6.82885 6.8125V7.4375H7.22359V6.8125H7.55253V6.1875H7.94727V5.5625H8.34201V4.9375H8.73675V4.6875C8.01306 5.1875 7.28938 5.6875 6.69727 6.25C6.63148 6.3125 6.56569 6.375 6.43411 6.4375V6.75H6.82885V6.8125ZM4.6578 9.875H4.52622V11.0625H4.92096V9.875H4.72359H4.6578ZM5.2499 18.4375H4.92096V19.0625H4.52622V18.4375H4.13148V17.875H3.73675V19.0625H4.13148V19.6875H4.52622V20.3125H4.13148V20.9375H3.73675V22.125H4.13148V21.5625H4.52622V20.9375H4.92096V21.5625H5.2499V22.125H5.64464V20.9375H5.2499V20.3125H4.92096V19.6875H5.2499V19.0625H5.64464V17.875H5.2499V18.4375ZM8.73675 14.75H9.13148V15.375H8.73675V14.75Z" fill="#C8313E"/>
<path d="M8.73674 11.6875H8.342V11.0625H7.94727V10.4375H7.55253V9.8125H7.15779V9.1875H6.76306V9.8125H6.36832V10.4375H5.97358V11.0625H5.57885V11.6875H5.2499V12.3125H4.92095V12.9375H4.52621V12.3125H4.13148V11.6875H3.73674V11.0625H3.342V10.4375H3.07884C2.68411 11.0625 2.28937 11.75 1.96042 12.4375C1.63148 13.1875 1.36832 13.9375 1.10516 14.6875H1.43411V15.3125H1.82884V14.6875H2.22358V14.0625H2.61832V13.4375H1.82884V12.8125H2.94727V13.4375H3.342V14.0625H3.73674V14.6875H3.342V15.3125H3.01306V15.9375H2.61832V16.5625H2.22358V17.1875H1.82884V17.8125H1.43411V17.1875H1.10516V16.5625H0.710423V16.3125C0.578844 16.8125 0.513055 17.3125 0.447266 17.8125H0.710423V18.4375H1.10516V19.0625H1.4999V19.6875H1.89463V20.3125H1.43411V20.9375H1.10516V21.5625H0.710423V22.1875H0.447266C0.513055 22.6875 0.578844 23.1875 0.710423 23.6875V23.4375H1.10516V22.8125H1.4999V22.1875H1.89463V22.8125H2.28937V23.4375H2.68411V24.0625H3.07884V24.6875H3.47358V25.3125H3.86832V25.9375H3.342V26.5625H3.01306V27.1875H1.82884V26.5625H2.61832V25.9375H2.22358V25.3125H1.82884V24.6875H1.43411V25.3125H1.10516C1.36832 26 1.63148 26.75 1.96042 27.5C2.28937 28.1875 2.68411 28.875 3.07884 29.5H3.40779V28.875H3.80253V28.25H4.19727V27.625H4.592V27H4.92095V27.625H5.31569V28.25H5.71042V28.875H6.10516V29.5H6.4999V30.125H6.89463V30.75H7.28937V30.125H7.55253V29.5H7.94727V28.875H8.342V28.25H8.73674V27.625H9.13148V26.375H8.73674V25.75H8.342V25.125H7.94727V24.5H7.55253V25.125H7.15779V25.75H6.76306V26.375H7.55253V27H6.43411V26.375H6.03937V25.75H5.64463V25.125H6.03937V24.5H6.43411V23.875H6.82885V23.25H7.22358V22.625H7.55253V22H7.94727V22.625H8.342V23.25H8.73674V23.875H9.13148V22H8.73674V21.375H8.342V20.75H7.94727V20.125H7.55253V19.5H7.94727V18.875H8.342V18.25H8.73674V17.625H9.13148V15.75H8.73674V16.375H8.342V17H7.94727V17.625H7.55253V17H7.15779V16.375H6.76306V15.75H6.36832V15.125H5.97358V14.5H5.57885V13.875H5.97358V13.25H6.36832V12.625H7.55253V13.25H6.76306V13.875H7.15779V14.5H7.55253V15.125H7.94727V14.5H8.342V13.875H8.73674V13.25H9.13148V12H8.73674V11.6875ZM6.03937 17.25V17.875H6.43411V18.5H6.82885V21.625H6.43411V22.25H6.03937V22.875H5.64463V23.5H5.2499V24.125H4.92095V24.75H4.52621V24.125H4.13148V23.5H3.73674V22.875H3.342V22.25H3.01306V21.625H2.61832V18.5H3.01306V17.875H3.40779V17.25H3.80253V16.625H4.19727V16H4.592V15.375H4.92095V16H5.31569V16.625H5.71042V17.25H6.03937Z" fill="#C8313E"/>
<path d="M4.72363 17.25H4.921V16.625H4.52626V17.25H4.65784H4.72363ZM3.73679 30.125H3.47363C3.53942 30.25 3.671 30.375 3.73679 30.5V30.125ZM4.13153 30.75H3.86837C3.93416 30.875 3.99995 30.9375 4.13153 31.0625V30.75ZM4.52626 31.375H4.39469C4.46047 31.4375 4.46047 31.5 4.52626 31.5625V31.375ZM8.73679 28.9375H9.13153V29.5625H8.73679V28.9375ZM8.73679 30.75H8.34205V30.125H7.94732V30.75H7.55258V31.375H7.15784V32H7.55258V32.625H7.94732V33.1875H8.34205V32.625H8.73679V32H9.06574V31.375H8.73679V30.75ZM5.24995 32V32.4375L5.44732 32.625H5.64469V32.8125L6.03942 33.1875V32.625H6.43416V32H6.8289V31.375H6.43416V30.75H6.03942V30.125H5.64469V30.75H5.24995V31.375H4.921V32H5.24995ZM8.73679 33.8125H9.13153V34.4375H8.73679V33.8125ZM6.63153 33.75C7.28942 34.3125 7.94732 34.875 8.671 35.3125V35.0625H8.27626V34.4375H7.88153V33.8125H7.55258V33.1875H7.15784V32.5625H6.76311V33.1875H6.36837V33.5L6.63153 33.75ZM4.65784 28.9375H4.52626V30.125H4.921V28.9375H4.72363H4.65784ZM8.73679 24.625H9.13153V25.25H8.73679V24.625ZM6.43416 20.0625V19.6875H6.03942V20.3125H6.43416V20.0625ZM4.65784 22.75H4.52626V23.375H4.921V22.75H4.72363H4.65784Z" fill="#C8313E"/>
<path d="M9.06543 27.5V35.5625C12.2233 37.5625 15.9733 38.75 20.0523 38.75C25.2496 38.75 29.9207 36.875 33.4733 33.75C35.447 32 37.0917 29.875 38.1444 27.5H9.06543Z" fill="#83BF4F"/>
<path d="M38.1444 27.5C39.197 25.1875 39.7891 22.6875 39.7891 20C39.7891 17.3125 39.197 14.8125 38.1444 12.5C37.026 10.125 35.447 8 33.4733 6.25C29.9207 3.125 25.2496 1.25 20.0523 1.25C15.9733 1.25 12.2233 2.4375 9.06543 4.4375V27.5H38.1444Z" fill="#C94747"/>
</svg>
