<svg width="40" height="40" viewBox="0 0 40 40" fill="none" xmlns="http://www.w3.org/2000/svg">
<path d="M1.25 20C1.25 23.6875 2.3125 27.125 4.125 30H35.8125C37.625 27.125 38.6875 23.6875 38.6875 20C38.6875 16.3125 37.625 12.875 35.8125 10H4.125C2.3125 12.875 1.25 16.3125 1.25 20Z" fill="#ED4C5C"/>
<path d="M35.875 10C32.5625 4.75 26.6875 1.25 20 1.25C13.3125 1.25 7.4375 4.75 4.125 10H35.875ZM4.125 30C7.4375 35.25 13.3125 38.75 20 38.75C26.6875 38.75 32.5625 35.25 35.875 30H4.125Z" fill="#2A5F9E"/>
<path d="M28.6875 22.3125V20.375C28.75 20.125 28.9375 19.9375 29.125 19.875V18.125C28.9375 18.125 28.8125 18.375 28.8125 18.4375V17.6875C28.75 17.625 28.625 17.625 28.5 17.6875V17.875H28.125V17.0625C28 17.0625 28 17.4375 27.75 17.4375C27.625 17.4375 27.625 17.25 27.6875 17.125C27.75 17 27.8125 16.8125 27.75 16.5625C27.6875 16.75 27.5 16.875 27.5 16.6875C27.5625 16.4375 27.75 16.375 27.625 16C27.5625 16.3125 27.375 16.3125 27.4375 16.125C27.5 15.9375 27.625 15.8125 27.4375 15.5C27.375 15.8125 27.25 15.8125 27.25 15.625C27.25 15.3125 27.25 15 26.875 14.875C26.875 14.875 26.875 14.5625 26.6875 14.5625C26.5 14.5625 26.5 14.875 26.5 14.875C26.125 15 26.125 15.3125 26.125 15.625C26.125 15.8125 26 15.875 25.9375 15.5C25.8125 15.8125 25.9375 15.875 25.9375 16.125C26 16.3125 25.8125 16.3125 25.75 16C25.625 16.375 25.8125 16.4375 25.875 16.6875C25.9375 16.8125 25.6875 16.75 25.625 16.5C25.5 16.8125 25.625 17 25.6875 17.0625C25.75 17.1875 25.75 17.375 25.625 17.375C25.375 17.375 25.375 17 25.25 17V18.5H22.3125V17.1875C22.125 17.25 22.0625 17.4375 22.0625 17.4375V17.6875H21.875C21.875 17.6875 21.75 17.6875 21.75 17.4375C21.75 17.1875 21.8125 17.0625 22 17.0625V16.5625C22 16.5625 21.5625 16.625 21.5625 17.125V16.6875C21.4375 16.6875 21.4375 16.875 21.4375 17.3125H21.3125V16.875C21.3125 16.625 21.5625 16.625 21.5625 16.4375C21.5625 16.4375 21.625 16.125 21.5 16C21.375 16.375 21.25 16.3125 21.25 16.125C21.25 16 21.375 15.875 21.5625 15.5C21.625 15.375 21.5625 15.0625 21.5 14.9375C21.4375 15.25 21.4375 15.375 21.3125 15.375C21.25 15.375 21.1875 15.3125 21.1875 15.1875C21.1875 15 21.3125 14.9375 21.375 14.75C21.4375 14.5625 21.375 14.375 21.3125 14.25C21.25 14.5625 21.25 14.625 21.1875 14.625C20.9375 14.5625 21.1875 14.1875 21.25 14.0625C21.3125 13.875 21.1875 13.75 21.1875 13.75C21.125 14 21.0625 14 21 14C20.875 14 20.9375 13.8125 21.0625 13.6875C21.125 13.625 21.125 13.5 21.0625 13.375C21 13.5625 20.8125 13.5625 20.875 13.4375L20.9375 13.0625H20.75V12.25H20.5C20.5 12.0625 20.375 11.875 20.125 11.875C19.875 11.875 19.8125 12.125 19.75 12.25H19.375V13.0625H19.1875L19.25 13.5C19.25 13.625 19.125 13.625 19.0625 13.4375C19 13.5625 18.9375 13.6875 19.0625 13.75C19.1875 13.875 19.1875 14.0625 19.125 14.0625C19.0625 14.0625 19 14.0625 18.9375 13.8125C18.9375 13.8125 18.8125 14 18.875 14.125C18.9375 14.1875 19.1875 14.5625 18.9375 14.6875C18.8125 14.6875 18.8125 14.5625 18.8125 14.3125C18.6875 14.4375 18.625 14.625 18.75 14.8125C18.8125 15 18.9375 15.0625 18.9375 15.25C18.9375 15.375 18.875 15.4375 18.8125 15.4375C18.6875 15.4375 18.625 15.3125 18.625 15C18.5625 15.125 18.5 15.4375 18.5625 15.5625C18.75 15.875 18.875 16 18.875 16.1875C18.875 16.3125 18.6875 16.4375 18.625 16.0625C18.5625 16.1875 18.5625 16.5 18.5625 16.5C18.5625 16.6875 18.8125 16.6875 18.8125 16.9375V17.4375H18.6875C18.6875 17 18.6875 16.8125 18.5 16.8125V17.25C18.5 16.75 18.0625 16.6875 18.0625 16.6875V17.1875C18.25 17.1875 18.3125 17.3125 18.3125 17.5625C18.3125 17.8125 18.1875 17.8125 18.1875 17.8125H17.9375V17.5625C17.9375 17.5625 17.875 17.375 17.6875 17.3125V18.625H14.8125V17.125C14.6875 17.125 14.6875 17.5 14.4375 17.5C14.3125 17.5 14.3125 17.3125 14.375 17.1875C14.4375 17.0625 14.5 16.875 14.4375 16.625C14.375 16.875 14.1875 16.9375 14.1875 16.8125C14.25 16.5625 14.4375 16.5 14.3125 16.125C14.25 16.4375 14.0625 16.4375 14.125 16.25C14.1875 16.0625 14.3125 15.9375 14.125 15.625C14.0625 15.9375 13.9375 15.9375 13.9375 15.75C13.9375 15.4375 13.9375 15.125 13.5625 15C13.5625 15 13.5625 14.6875 13.375 14.6875C13.1875 14.6875 13.125 14.875 13.125 14.875C12.75 15 12.75 15.3125 12.75 15.625C12.75 15.8125 12.625 15.875 12.5625 15.5C12.4375 15.8125 12.5625 15.875 12.5625 16.125C12.625 16.3125 12.4375 16.3125 12.375 16C12.25 16.375 12.4375 16.4375 12.5 16.6875C12.5625 16.8125 12.3125 16.75 12.25 16.5C12.125 16.8125 12.25 17 12.3125 17.0625C12.375 17.1875 12.375 17.375 12.25 17.375C12 17.375 12 17 11.875 17V17.8125H11.5625V17.625C11.4375 17.5625 11.3125 17.5625 11.25 17.625V18.375C11.25 18.375 11.125 18.0625 10.9375 18.0625V19.875C11.0625 19.9375 11.3125 20.125 11.375 20.375V22.3125C11.3125 22.5 11.125 22.75 11 22.8125H29.1875C28.9375 22.75 28.75 22.5625 28.6875 22.3125Z" fill="#E2E2E2"/>
<path d="M31.0625 26.3125V25.125H30.4375V24.125H29.875V23.375H29.5625V22.8125H10.4375V23.375H10.125V24.125H9.5625V25.125H8.9375V26.3125H8.375V27.5H31.625V26.3125H31.0625Z" fill="white"/>
<path d="M14.25 22.8125C14.125 22.75 13.875 22.5625 13.875 22.3125V20.25L14.0625 19.9375H14.125V19.3125C14 19.375 13.9375 19.4375 13.8125 19.5C13.8125 19.4375 13.75 19.375 13.75 19.3125C13.8125 19.25 14.0625 18.9375 14.125 18.8125V18.3125C14.0625 18.3125 14 18.375 13.9375 18.375C14.0625 18.25 14.125 18.125 14.125 18V17.5C14 17.5 13.8125 17.625 13.75 17.8125C13.75 17.6875 13.6875 17.5625 13.625 17.4375C13.6875 17.375 13.875 17.1875 13.875 17.0625V16.75C13.75 16.75 13.6875 16.8125 13.5625 16.9375C13.5625 16.875 13.5625 16.875 13.5 16.8125L13.6875 16.5625V16.25C13.625 16.25 13.5625 16.3125 13.5 16.375C13.5 16.3125 13.4375 16.25 13.4375 16.1875L13.5 16V15.75C13.4375 15.75 13.4375 15.75 13.375 15.8125C13.375 15.75 13.3125 15.6875 13.3125 15.6875H13.375L13.5625 15.5625V15.375C13.5 15.375 13.5 15.375 13.4375 15.4375C13.375 15.3125 13.3125 15.25 13.1875 15.1875C13.0625 15.25 13 15.3125 12.9375 15.4375C12.875 15.375 12.875 15.375 12.8125 15.375V15.5625L13 15.6875H13.125C13.125 15.75 13.0625 15.75 13.0625 15.8125C13 15.75 13 15.75 12.9375 15.75V16L13 16.1875C13 16.25 12.9375 16.25 12.9375 16.3125C12.875 16.1875 12.8125 16.1875 12.75 16.1875V16.5L12.9375 16.75C12.9375 16.8125 12.9375 16.8125 12.875 16.875C12.8125 16.75 12.6875 16.6875 12.5625 16.6875V17C12.5625 17.125 12.75 17.3125 12.8125 17.375C12.75 17.5 12.75 17.625 12.6875 17.75C12.5625 17.5625 12.4375 17.4375 12.3125 17.4375V17.9375C12.3125 18 12.4375 18.1875 12.5 18.3125C12.4375 18.25 12.375 18.25 12.3125 18.25V18.75C12.375 18.875 12.5625 19.125 12.6875 19.1875C12.6875 19.25 12.625 19.3125 12.625 19.375C12.5625 19.4375 12.5 19.375 12.375 19.375V20L12.5625 20.3125V22.375C12.5625 22.5625 12.3125 22.75 12.1875 22.875H12.5V27.5H13.9375V22.8125H14.25ZM21.0625 17.6875V17.0625C20.8125 17.125 20.6875 17.3125 20.625 17.4375C20.625 17.3125 20.5625 17.1875 20.5 17.0625C20.5625 16.8125 20.625 16.6875 20.75 16.5625H20.8125V16C20.625 16.0625 20.5 16.1875 20.4375 16.3125C20.4375 16.25 20.375 16.0625 20.3125 15.9375L20.5 15.625H20.75V15.0625C20.5625 15.125 20.4375 15.25 20.4375 15.375C20.4375 15.3125 20.375 15.125 20.3125 15L20.625 14.75V14.375C20.5 14.4375 20.3125 14.4375 20.3125 14.6875C20.3125 14.5625 20.25 14.4375 20.25 14.375L20.5625 14.125V13.75C20.4375 13.75 20.3125 13.8125 20.3125 13.9375C20.3125 13.875 20.25 13.8125 20.25 13.75L20.4375 13.625V13.3125C20.375 13.3125 20.25 13.375 20.25 13.5C20.25 13.3125 20.1875 13.3125 20.0625 13.25C20 13.3125 19.9375 13.3125 19.875 13.5C19.875 13.375 19.75 13.375 19.6875 13.3125V13.625L19.875 13.75C19.875 13.8125 19.8125 13.875 19.8125 13.9375C19.8125 13.75 19.6875 13.75 19.5625 13.75V14.0625L19.875 14.3125C19.8125 14.375 19.8125 14.5 19.8125 14.625C19.8125 14.375 19.625 14.375 19.5 14.3125V14.75L19.75 15C19.6875 15.125 19.625 15.3125 19.625 15.375C19.5625 15.25 19.4375 15.125 19.3125 15.0625V15.625H19.375L19.5625 15.9375C19.5 16.0625 19.4375 16.1875 19.4375 16.3125C19.375 16.1875 19.25 16.0625 19.0625 16V16.5625H19.125C19.25 16.625 19.375 16.8125 19.375 17.0625V17.375C19.3125 17.25 19.125 17.0625 18.9375 17V17.625H19.0625C19.25 17.875 19.3125 18.25 19.3125 18.5L19.125 18.3125V18.9375H19.75C19.625 19.125 19.5625 19.3125 19.5625 19.5625C19.375 19.5 19.375 19.4375 19.1875 19.375V20L19.3125 20.1875V22.375C19.3125 22.5625 19.0625 22.75 18.9375 22.875H19.25V27.5H20.6875V22.8125H21C20.875 22.75 20.625 22.5625 20.625 22.3125V20.125L20.75 19.9375V19.3125C20.5 19.375 20.5 19.4375 20.4375 19.625C20.4375 19.4375 20.375 19.1875 20.25 19H20.875V18.375C20.8125 18.4375 20.75 18.4375 20.6875 18.5C20.6875 18.1875 20.75 17.875 20.9375 17.625C21 17.6875 21.0625 17.6875 21.0625 17.6875ZM27.75 22.8125C27.625 22.75 27.375 22.5625 27.375 22.3125V20.25L27.5625 19.9375H27.625V19.3125C27.5 19.375 27.4375 19.4375 27.3125 19.4375C27.3125 19.375 27.25 19.3125 27.25 19.25C27.3125 19.125 27.5625 18.9375 27.625 18.8125V18.3125C27.5625 18.3125 27.5 18.375 27.4375 18.375C27.5625 18.25 27.625 18.0625 27.625 18V17.5C27.5 17.5 27.3125 17.625 27.25 17.8125C27.25 17.6875 27.1875 17.5625 27.125 17.4375C27.1875 17.375 27.375 17.1875 27.375 17.0625V16.75C27.25 16.75 27.1875 16.8125 27.0625 16.9375C27.0625 16.875 27.0625 16.875 27 16.8125L27.1875 16.5625V16.25C27.125 16.25 27.0625 16.3125 27 16.375C27 16.3125 26.9375 16.25 26.9375 16.25L27 16.0625V15.8125C26.9375 15.8125 26.9375 15.8125 26.875 15.875C26.875 15.8125 26.8125 15.75 26.8125 15.75H26.875L27.0625 15.625V15.4375C27 15.4375 27 15.4375 26.9375 15.5C26.875 15.375 26.8125 15.3125 26.6875 15.25C26.5625 15.3125 26.5 15.375 26.4375 15.5C26.375 15.4375 26.375 15.4375 26.3125 15.4375V15.625L26.5 15.75H26.5625C26.5625 15.8125 26.5 15.8125 26.5 15.875C26.4375 15.8125 26.4375 15.8125 26.375 15.8125V16.0625L26.4375 16.25C26.375 16.3125 26.375 16.3125 26.375 16.4375C26.3125 16.3125 26.25 16.3125 26.1875 16.3125V16.625L26.375 16.875C26.375 16.9375 26.375 16.9375 26.3125 17C26.25 16.875 26.1875 16.875 26.0625 16.8125V17.125C26.0625 17.25 26.25 17.4375 26.3125 17.5C26.25 17.625 26.25 17.75 26.1875 17.875C26.0625 17.6875 25.9375 17.5625 25.8125 17.5625V18.0625C25.8125 18.125 25.9375 18.3125 26 18.4375C25.9375 18.375 25.875 18.375 25.8125 18.375V18.875C25.875 19 26.125 19.25 26.1875 19.375C26.1875 19.4375 26.125 19.5 26.125 19.5625C26.0625 19.5 25.9375 19.4375 25.8125 19.375V20H25.875L26.0625 20.3125V22.375C26.0625 22.5625 25.8125 22.75 25.6875 22.875H26V27.5H27.4375V22.8125H27.75Z" fill="white"/>
</svg>
