<svg width="40" height="40" viewBox="0 0 40 40" fill="none" xmlns="http://www.w3.org/2000/svg">
<g clip-path="url(#clip0_2693_44823)">
<path d="M20 40C31.0457 40 40 31.0457 40 20C40 8.95431 31.0457 0 20 0C8.95431 0 0 8.95431 0 20C0 31.0457 8.95431 40 20 40Z" fill="white"/>
<path d="M21.0183 18.0809C21.8546 17.7132 22.7128 17.695 23.5954 18.0248C24.5211 18.3728 25.1565 18.9233 25.4999 19.6792C25.8449 20.4366 25.8858 21.3722 25.625 22.4875C26.2369 20.5337 26.1664 18.7284 25.412 17.0733C24.6599 15.4204 23.38 14.2528 21.5718 13.5773C19.809 12.9146 18.0523 12.9761 16.3031 13.7524C14.5532 14.5303 13.353 15.7904 12.701 17.5274C12.3492 18.4714 12.3613 19.3805 12.745 20.2546C13.1271 21.1296 13.7746 21.7369 14.6867 22.0788C15.57 22.4086 16.429 22.3912 17.2675 22.0296C18.1068 21.6656 18.7149 21.0469 19.094 20.1667L19.1873 19.9461C19.5717 19.0704 20.1828 18.4479 21.0183 18.0809Z" fill="#EC1C24"/>
<path d="M17.3077 21.9348C16.4707 22.3032 15.6117 22.3214 14.7322 21.9924C13.8057 21.6451 13.1696 21.0932 12.8261 20.3365C12.4826 19.5806 12.4409 18.645 12.6995 17.5305C12.0891 19.4828 12.1612 21.2873 12.9141 22.9416C13.6677 24.5975 14.9468 25.7621 16.7535 26.4391C18.5171 27.0995 20.2738 27.0389 22.0244 26.2648C23.772 25.4861 24.9738 24.2275 25.6235 22.4898C25.9784 21.5458 25.9662 20.636 25.5826 19.7633C25.1989 18.8884 24.5515 18.2803 23.6378 17.9384C22.7576 17.6078 21.8986 17.6252 21.06 17.9876C20.2215 18.3508 19.6126 18.9718 19.2335 19.849L19.1395 20.0704C18.7559 20.9438 18.1433 21.567 17.3077 21.9348Z" fill="#1B75BB"/>
<path d="M13.0686 8.07663C13.1171 8.12598 13.1443 8.19242 13.1443 8.26163C13.1443 8.33084 13.1171 8.39728 13.0686 8.44662L8.44517 13.0685C8.42103 13.0928 8.39234 13.112 8.36076 13.1252C8.32917 13.1383 8.29531 13.1451 8.26109 13.1452C8.22687 13.1453 8.19298 13.1386 8.16134 13.1256C8.1297 13.1126 8.10094 13.0934 8.07669 13.0693C8.05245 13.0451 8.0332 13.0165 8.02004 12.9849C8.00688 12.9533 8.00007 12.9194 8 12.8852C7.99993 12.851 8.0066 12.8171 8.01963 12.7855C8.03266 12.7538 8.05179 12.725 8.07594 12.7008L12.6986 8.07739C12.7228 8.05295 12.7516 8.03353 12.7833 8.02026C12.815 8.00698 12.849 8.00011 12.8834 8.00004C12.9178 7.99997 12.9519 8.0067 12.9837 8.01985C13.0154 8.03299 13.0443 8.05229 13.0686 8.07663ZM13.9026 8.90987C13.927 8.93405 13.9463 8.96281 13.9595 8.9945C13.9727 9.02618 13.9795 9.06017 13.9795 9.09449C13.9795 9.12882 13.9727 9.1628 13.9595 9.19449C13.9463 9.22618 13.927 9.25494 13.9026 9.27911L9.28221 13.9018C9.23305 13.9507 9.16654 13.9781 9.09721 13.9781C9.02788 13.9781 8.96137 13.9507 8.91221 13.9018C8.88755 13.8777 8.86794 13.8489 8.85456 13.8171C8.84118 13.7854 8.83428 13.7512 8.83428 13.7168C8.83428 13.6823 8.84118 13.6482 8.85456 13.6164C8.86794 13.5846 8.88755 13.5559 8.91221 13.5318L13.5349 8.90987C13.5836 8.86112 13.6498 8.83373 13.7187 8.83373C13.7877 8.83373 13.8538 8.86112 13.9026 8.90987ZM14.7669 9.77497C14.7916 9.79905 14.8112 9.82782 14.8246 9.85959C14.838 9.89136 14.8449 9.92549 14.8449 9.95996C14.8449 9.99444 14.838 10.0286 14.8246 10.0603C14.8112 10.0921 14.7916 10.1209 14.7669 10.145L10.1435 14.7684C10.1195 14.7927 10.0908 14.812 10.0593 14.8252C10.0277 14.8384 9.99385 14.8452 9.95965 14.8452C9.92545 14.8452 9.89159 14.8384 9.86003 14.8252C9.82847 14.812 9.79983 14.7927 9.77579 14.7684C9.72667 14.7192 9.69907 14.6525 9.69907 14.583C9.69907 14.5135 9.72667 14.4468 9.77579 14.3976L14.3977 9.77497C14.4219 9.7506 14.4506 9.73126 14.4823 9.71806C14.514 9.70486 14.548 9.69806 14.5823 9.69806C14.6166 9.69806 14.6506 9.70486 14.6823 9.71806C14.714 9.73126 14.7428 9.7506 14.7669 9.77497ZM27.4514 10.499C27.5606 10.4134 27.6637 10.3201 27.7683 10.2276L25.6181 8.07663C25.569 8.02756 25.5025 8 25.4331 8C25.3637 8 25.2972 8.02756 25.2481 8.07663C25.199 8.12569 25.1715 8.19224 25.1715 8.26163C25.1715 8.33101 25.199 8.39756 25.2481 8.44662L27.3824 10.5802C27.3998 10.5488 27.4233 10.5213 27.4514 10.499ZM30.2415 12.7L28.1542 10.612C28.0246 10.728 27.8926 10.844 27.7554 10.9517L29.8715 13.0678C29.9214 13.1109 29.9857 13.1336 30.0516 13.1313C30.1176 13.129 30.1802 13.1019 30.2269 13.0554C30.2737 13.0089 30.3012 12.9465 30.3039 12.8806C30.3066 12.8147 30.2843 12.7502 30.2415 12.7ZM29.4083 13.8987C29.3592 13.9476 29.2928 13.975 29.2236 13.975C29.1544 13.975 29.088 13.9476 29.039 13.8987L24.4156 9.27608C24.3897 9.25216 24.3689 9.22326 24.3545 9.19111C24.34 9.15896 24.3322 9.12422 24.3316 9.08898C24.3309 9.05374 24.3373 9.01873 24.3505 8.98605C24.3637 8.95336 24.3834 8.92368 24.4083 8.89878C24.4333 8.87389 24.463 8.85429 24.4957 8.84116C24.5284 8.82804 24.5634 8.82167 24.5987 8.82242C24.6339 8.82317 24.6686 8.83104 24.7008 8.84555C24.7329 8.86005 24.7617 8.8809 24.7856 8.90684L29.4083 13.5287C29.4326 13.553 29.4518 13.5819 29.465 13.6136C29.4781 13.6454 29.4849 13.6794 29.4849 13.7137C29.4849 13.7481 29.4781 13.7821 29.465 13.8139C29.4518 13.8456 29.4326 13.8744 29.4083 13.8987ZM25.6552 12.2262C25.7902 12.1216 25.9032 11.9957 26.0078 11.86L23.922 9.77497C23.8981 9.74907 23.8692 9.72828 23.8371 9.71384C23.8049 9.6994 23.7702 9.69161 23.7349 9.69093C23.6997 9.69024 23.6647 9.69669 23.632 9.70988C23.5993 9.72307 23.5696 9.74273 23.5447 9.76768C23.5198 9.79263 23.5002 9.82235 23.4871 9.85506C23.474 9.88777 23.4676 9.9228 23.4684 9.95804C23.4691 9.99328 23.477 10.028 23.4915 10.0601C23.506 10.0922 23.5268 10.1211 23.5528 10.145L25.6477 12.2383C25.6469 12.2376 25.6507 12.2322 25.6552 12.2262ZM28.5432 14.3976L26.3945 12.2489C26.2838 12.3854 26.1602 12.509 26.0283 12.6204L28.1739 14.7676C28.198 14.7923 28.2267 14.8119 28.2584 14.8252C28.2901 14.8386 28.3241 14.8455 28.3586 14.8455C28.393 14.8455 28.427 14.8386 28.4587 14.8252C28.4904 14.8119 28.5192 14.7923 28.5432 14.7676C28.5675 14.7433 28.5867 14.7145 28.5999 14.6827C28.613 14.651 28.6198 14.617 28.6198 14.5826C28.6198 14.5483 28.613 14.5142 28.5999 14.4825C28.5867 14.4508 28.5675 14.4219 28.5432 14.3976ZM27.412 29.4779L25.3376 31.5539C25.2887 31.6029 25.2613 31.6693 25.2613 31.7385C25.2613 31.8077 25.2887 31.8741 25.3376 31.9231C25.3617 31.9475 25.3905 31.9668 25.4222 31.98C25.4539 31.9932 25.4879 32 25.5222 32C25.5565 32 25.5905 31.9932 25.6222 31.98C25.6539 31.9668 25.6826 31.9475 25.7068 31.9231L27.7668 29.8616C27.6493 29.7327 27.5317 29.6053 27.412 29.4779ZM30.3302 26.932C30.2806 26.8833 30.2138 26.8563 30.1444 26.8567C30.0749 26.8571 30.0084 26.885 29.9595 26.9342L27.7994 29.0928C27.9184 29.2224 28.0367 29.3491 28.155 29.4764L30.3302 27.3027C30.3784 27.253 30.4054 27.1866 30.4054 27.1173C30.4054 27.0481 30.3784 26.9816 30.3302 26.932ZM26.6015 28.625L24.5036 30.7206C24.455 30.77 24.4278 30.8364 24.4278 30.9056C24.4278 30.9748 24.455 31.0413 24.5036 31.0906C24.5529 31.1398 24.6197 31.1674 24.6893 31.1674C24.7589 31.1674 24.8257 31.1398 24.8751 31.0906L26.9616 29.0026C26.8403 28.8752 26.7228 28.7478 26.6015 28.625ZM29.4955 26.098C29.4715 26.0737 29.4429 26.0544 29.4114 26.0412C29.3799 26.028 29.3461 26.0212 29.312 26.0212C29.2778 26.0212 29.244 26.028 29.2125 26.0412C29.181 26.0544 29.1525 26.0737 29.1285 26.098L26.9889 28.236C27.1117 28.3604 27.2285 28.487 27.3505 28.6136L29.4962 26.4672C29.5208 26.4431 29.5403 26.4144 29.5536 26.3826C29.567 26.3509 29.5738 26.3168 29.5737 26.2824C29.5736 26.248 29.5667 26.2139 29.5532 26.1823C29.5398 26.1506 29.5201 26.1219 29.4955 26.098ZM25.7 27.7955L23.6377 29.8555C23.5895 29.9051 23.5626 29.9714 23.5626 30.0405C23.5626 30.1096 23.5895 30.176 23.6377 30.2255C23.687 30.2747 23.7538 30.3023 23.8235 30.3023C23.8931 30.3023 23.9599 30.2747 24.0092 30.2255L26.0851 28.1466C25.9578 28.0298 25.8349 27.9055 25.7 27.7955ZM26.4764 27.7584L28.6304 25.6013C28.6551 25.5773 28.6748 25.5486 28.6882 25.5168C28.7017 25.485 28.7086 25.4508 28.7086 25.4163C28.7086 25.3818 28.7017 25.3477 28.6882 25.3159C28.6748 25.2841 28.6551 25.2554 28.6304 25.2313C28.6063 25.207 28.5777 25.1877 28.5461 25.1745C28.5146 25.1614 28.4807 25.1546 28.4465 25.1546C28.4123 25.1546 28.3784 25.1614 28.3469 25.1745C28.3153 25.1877 28.2867 25.207 28.2626 25.2313L26.0889 27.4051C26.2246 27.518 26.3475 27.6401 26.4764 27.7584ZM10.9517 29.5007C10.8426 29.5856 10.7402 29.6796 10.6341 29.7721L12.7858 31.9231C12.8099 31.9474 12.8386 31.9668 12.8702 31.98C12.9018 31.9931 12.9358 31.9999 12.97 31.9999C13.0043 31.9999 13.0382 31.9931 13.0698 31.98C13.1015 31.9668 13.1302 31.9474 13.1543 31.9231C13.1787 31.899 13.1981 31.8702 13.2114 31.8385C13.2247 31.8068 13.2315 31.7728 13.2315 31.7385C13.2315 31.7041 13.2247 31.6701 13.2114 31.6384C13.1981 31.6067 13.1787 31.578 13.1543 31.5539L11.0215 29.4188C11.0032 29.45 10.9796 29.4777 10.9517 29.5007ZM8.16388 27.2997L10.2504 29.3877C10.3808 29.2725 10.5105 29.1557 10.6485 29.0488L8.53236 26.932C8.48264 26.8881 8.41808 26.8648 8.35182 26.8669C8.28556 26.8689 8.22256 26.8961 8.17563 26.943C8.12871 26.9898 8.10137 27.0527 8.09919 27.119C8.09701 27.1853 8.12014 27.2499 8.16388 27.2997ZM13.986 30.7229L11.879 28.6159C11.763 28.7228 11.6485 28.8327 11.5272 28.9328C11.5113 28.9465 11.4954 28.9518 11.4809 28.9601L13.6152 31.0929C13.6395 31.1172 13.6684 31.1365 13.7001 31.1497C13.7319 31.1629 13.766 31.1697 13.8004 31.1698C13.8347 31.1698 13.8688 31.1631 13.9006 31.1499C13.9324 31.1368 13.9613 31.1176 13.9856 31.0933C14.01 31.069 14.0293 31.0401 14.0425 31.0084C14.0557 30.9766 14.0625 30.9425 14.0625 30.9082C14.0625 30.8738 14.0558 30.8397 14.0427 30.8079C14.0296 30.7761 14.0103 30.7472 13.986 30.7229ZM11.1284 28.5568C11.2543 28.4498 11.3725 28.3376 11.4938 28.2254L9.36485 26.098C9.34099 26.072 9.31213 26.0512 9.28001 26.0367C9.24789 26.0221 9.21317 26.0143 9.17793 26.0135C9.14269 26.0128 9.10766 26.0192 9.07495 26.0323C9.04224 26.0454 9.01252 26.065 8.98757 26.0899C8.96262 26.1148 8.94296 26.1445 8.92977 26.1772C8.91658 26.2098 8.91014 26.2449 8.91082 26.2801C8.9115 26.3153 8.91929 26.3501 8.93373 26.3822C8.94818 26.4144 8.96897 26.4433 8.99486 26.4672L11.1087 28.581C11.1178 28.5727 11.1201 28.5659 11.1284 28.5568ZM9.86298 25.2336C9.88693 25.209 9.91558 25.1894 9.94722 25.1761C9.97887 25.1627 10.0129 25.1558 10.0472 25.1558C10.0816 25.1558 10.1156 25.1627 10.1472 25.1761C10.1789 25.1894 10.2075 25.209 10.2315 25.2336L14.8549 29.8555C14.9038 29.9047 14.9312 29.9712 14.9312 30.0405C14.9312 30.1098 14.9038 30.1764 14.8549 30.2255C14.8307 30.25 14.8019 30.2694 14.7701 30.2827C14.7384 30.296 14.7043 30.3028 14.6699 30.3028C14.6355 30.3028 14.6014 30.296 14.5696 30.2827C14.5379 30.2694 14.5091 30.25 14.4849 30.2255L9.86298 25.6021C9.83836 25.5781 9.81878 25.5495 9.80542 25.5179C9.79206 25.4862 9.78517 25.4522 9.78517 25.4179C9.78517 25.3835 9.79206 25.3495 9.80542 25.3179C9.81878 25.2862 9.83836 25.2576 9.86298 25.2336Z" fill="#231F20"/>
<path d="M8.15248 26.9244C8.17677 26.9001 8.20561 26.8808 8.23735 26.8677C8.26909 26.8545 8.30312 26.8477 8.33748 26.8477C8.37184 26.8477 8.40586 26.8545 8.4376 26.8677C8.46934 26.8808 8.49818 26.9001 8.52247 26.9244L13.1436 31.5463C13.1679 31.5706 13.1872 31.5994 13.2003 31.6312C13.2135 31.6629 13.2202 31.6969 13.2202 31.7313C13.2202 31.7656 13.2135 31.7997 13.2003 31.8314C13.1872 31.8632 13.1679 31.892 13.1436 31.9163C13.1193 31.9406 13.0905 31.9599 13.0587 31.973C13.027 31.9861 12.993 31.9929 12.9586 31.9929C12.9243 31.9929 12.8902 31.9861 12.8585 31.973C12.8268 31.9599 12.7979 31.9406 12.7736 31.9163L8.15248 27.2944C8.128 27.2702 8.10856 27.2414 8.09529 27.2096C8.08203 27.1779 8.0752 27.1438 8.0752 27.1094C8.0752 27.075 8.08203 27.0409 8.09529 27.0091C8.10856 26.9774 8.128 26.9486 8.15248 26.9244ZM12.7501 27.7736C12.6171 27.88 12.4985 28.0033 12.3976 28.1405L14.4826 30.2255C14.5316 30.2746 14.5982 30.3022 14.6676 30.3022C14.737 30.3022 14.8035 30.2746 14.8526 30.2255C14.9016 30.1765 14.9292 30.1099 14.9292 30.0405C14.9292 29.9711 14.9016 29.9046 14.8526 29.8555L12.7577 27.7622L12.7501 27.7736ZM9.86295 25.6021L12.0094 27.7508C12.1208 27.6143 12.2429 27.4915 12.3771 27.3793L10.2314 25.2336C10.2075 25.209 10.1788 25.1894 10.1472 25.1761C10.1155 25.1627 10.0815 25.1558 10.0472 25.1558C10.0128 25.1558 9.97883 25.1627 9.94719 25.1761C9.91554 25.1894 9.8869 25.209 9.86295 25.2336C9.83832 25.2576 9.81875 25.2862 9.80539 25.3179C9.79202 25.3495 9.78514 25.3835 9.78514 25.4179C9.78514 25.4522 9.79202 25.4862 9.80539 25.5179C9.81875 25.5495 9.83832 25.5782 9.86295 25.6021Z" fill="#231F20"/>
</g>
<defs>
<clipPath id="clip0_2693_44823">
<rect width="40" height="40" rx="20" fill="white"/>
</clipPath>
</defs>
</svg>
