<svg width="40" height="40" viewBox="0 0 40 40" fill="none" xmlns="http://www.w3.org/2000/svg">
<path d="M1.25 20C1.25 23.6875 2.3125 27.125 4.125 30H35.8125C37.625 27.125 38.6875 23.6875 38.6875 20C38.6875 16.3125 37.625 12.875 35.8125 10H4.125C2.3125 12.875 1.25 16.3125 1.25 20Z" fill="#2A5F9E"/>
<path d="M35.875 10C32.5625 4.75 26.6875 1.25 20 1.25C13.3125 1.25 7.4375 4.75 4.125 10H35.875ZM4.125 30C7.4375 35.25 13.3125 38.75 20 38.75C26.6875 38.75 32.5625 35.25 35.875 30H4.125Z" fill="#ED4C5C"/>
<path d="M20 26.25C23.4518 26.25 26.25 23.4518 26.25 20C26.25 16.5482 23.4518 13.75 20 13.75C16.5482 13.75 13.75 16.5482 13.75 20C13.75 23.4518 16.5482 26.25 20 26.25Z" fill="white"/>
</svg>
