<svg width="40" height="40" viewBox="0 0 40 40" fill="none" xmlns="http://www.w3.org/2000/svg">
<path d="M38.5625 17.5C38.5 16.875 38.375 16.25 38.25 15.625H1.75C1.625 16.25 1.5 16.875 1.4375 17.5H38.5625ZM1.4375 22.5C1.5 23.125 1.625 23.75 1.75 24.375H38.1875C38.3125 23.75 38.4375 23.125 38.5 22.5H1.4375Z" fill="white"/>
<path d="M12.5 2.8125C11.875 3.0625 11.25 3.4375 10.625 3.75V36.25C11.25 36.625 11.875 36.9375 12.5 37.1875V2.8125ZM17.5 1.4375V38.625L19.375 38.8125V1.25C18.75 1.25 18.125 1.3125 17.5 1.4375Z" fill="white"/>
<path d="M1.25 20C1.25 20.875 1.3125 21.6875 1.4375 22.5H38.625C38.75 21.6875 38.8125 20.875 38.8125 20C38.8125 19.125 38.75 18.3125 38.625 17.5H1.4375C1.3125 18.3125 1.25 19.125 1.25 20Z" fill="#428BC1"/>
<path d="M12.5 37.1875C14.0625 37.875 15.75 38.375 17.5 38.5625V1.4375C15.75 1.6875 14.0625 2.125 12.5 2.8125V37.1875Z" fill="#428BC1"/>
<path d="M10.625 15.625V3.75C6.25 6.3125 3 10.5625 1.75 15.625H10.625ZM10.625 24.375V36.25C6.25 33.6875 3 29.4375 1.75 24.375H10.625ZM20 1.25H19.375V15.625H38.25C36.25 7.375 28.875 1.25 20 1.25ZM19.375 24.375V38.75H20C28.875 38.75 36.25 32.625 38.25 24.375H19.375Z" fill="#ED4C5C"/>
</svg>
