<svg width="40" height="40" viewBox="0 0 40 40" fill="none" xmlns="http://www.w3.org/2000/svg">
<path d="M20 1.25V20H38.75C38.75 9.625 30.375 1.25 20 1.25Z" fill="#ED4C5C"/>
<path d="M20 38.75V20H1.25C1.25 30.375 9.625 38.75 20 38.75Z" fill="#2A5F9E"/>
<path d="M20 38.75V20H38.75C38.75 30.375 30.375 38.75 20 38.75ZM20 1.25V20H1.25C1.25 9.625 9.625 1.25 20 1.25Z" fill="#F9F9F9"/>
<path d="M10.625 12.9375L12.5625 14.375L11.8125 12L13.75 10.5H11.375L10.625 8.125L9.875 10.5H7.5L9.4375 12L8.6875 14.375L10.625 12.9375Z" fill="#2A5F9E"/>
<path d="M29.375 29.1875L31.3125 30.625L30.5625 28.25L32.5 26.75H30.125L29.375 24.375L28.625 26.75H26.25L28.1875 28.25L27.4375 30.625L29.375 29.1875Z" fill="#ED4C5C"/>
</svg>
