<svg width="40" height="40" viewBox="0 0 40 40" fill="none" xmlns="http://www.w3.org/2000/svg">
<path d="M20.625 20L7.0625 33.5625C10.4375 36.75 15 38.75 20 38.75C30.375 38.75 38.75 30.375 38.75 20H20.625Z" fill="#ED4C5C"/>
<path d="M38.75 20C38.75 9.625 30.375 1.25 20 1.25C15 1.25 10.4375 3.25 7.0625 6.4375L20.625 20H38.75Z" fill="#428BC1"/>
<path d="M7.0625 6.4375C3.5 9.875 1.25 14.6875 1.25 20C1.25 25.3125 3.5 30.125 7.0625 33.5625L20.625 20L7.0625 6.4375Z" fill="#F9F9F9"/>
<path d="M8.125 8.5L7.625 9.375L8.3125 10.0625L7.375 9.9375L6.875 10.8125L6.75 9.875L5.8125 9.75L6.6875 9.25L6.5625 8.3125L7.25 9L8.125 8.5ZM8.25 30L7.5625 30.75L8.0625 31.5625L7.1875 31.1875L6.5 31.9375L6.625 30.9375L5.6875 30.5625L6.6875 30.375L6.8125 29.375L7.3125 30.25L8.25 30ZM19.0625 20L18.125 20.3125V21.25L17.5 20.5L16.5625 20.75L17.1875 20L16.5625 19.25L17.5 19.5L18.125 18.75V19.6875L19.0625 20ZM14.8125 19.0625L14.4375 18.75L10.375 19.625H10.4375L14.25 18.625L13.75 18.3125L10.5 19.5625L13.1875 17.3125L13.125 16.75L10.3125 19.625H10.25L13.0625 16.5L13 16.0625L12.5625 16.125L10.0625 19.375V19.3125L12.375 16L11.8125 16.0625L10.125 19.125L10.75 15.625L10.375 15.25L10 19.3125V19.375L10.125 15.125L9.8125 14.8125L9.5 15.125L9.625 19.375V19.3125L9.3125 15.3125L8.9375 15.6875L9.5625 19.1875L7.875 16.125L7.3125 16.0625L9.625 19.375V19.4375L7.0625 16.0625L6.625 16L6.5625 16.4375L9.375 19.5625H9.3125L6.5 16.6875L6.4375 17.25L9.125 19.5L5.875 18.25L5.4375 18.5625L9.25 19.5625H9.3125L5.1875 18.75L4.8125 19L5.0625 19.375L9.1875 19.9375H9.125L5.1875 19.5625L5.5 20L9 19.9375L5.75 21.25L5.625 21.8125L9.1875 20.0625H9.25L5.5625 22.0625L5.4375 22.5L5.875 22.625L9.4375 20.375V20.4375L6.1875 22.75L6.6875 22.875L9.3125 20.5625L7.5 23.625L7.75 24.125L9.375 20.5L9.4375 20.4375L7.875 24.375L8.0625 24.8125L8.5 24.625L9.8125 20.5625V20.625L8.75 24.5L9.25 24.25L9.8125 20.75L10.375 24.25L10.875 24.5L9.8125 20.625V20.5625L11.125 24.625L11.5625 24.8125L11.75 24.375L10.1875 20.4375L10.25 20.5L11.875 24.125L12.125 23.625L10.375 20.5625L13 22.875L13.5 22.75L10.25 20.4375V20.375L13.8125 22.625L14.25 22.5L14.125 22.0625L10.4375 20.0625H10.5L14.0625 21.8125L13.875 21.25L10.5625 20.0625L14.0625 20.125L14.375 19.6875L10.4375 20.0625H10.375L14.5 19.5L14.8125 19.0625Z" fill="#FFCE31"/>
<path d="M9.8125 22.8125C11.3658 22.8125 12.625 21.5533 12.625 20C12.625 18.4467 11.3658 17.1875 9.8125 17.1875C8.2592 17.1875 7 18.4467 7 20C7 21.5533 8.2592 22.8125 9.8125 22.8125Z" fill="#FFCE31"/>
</svg>
