<svg width="40" height="40" viewBox="0 0 40 40" fill="none" xmlns="http://www.w3.org/2000/svg">
<path d="M19.9375 1.25C11.8125 1.25 4.875 6.5 2.3125 13.75H37.6875C35.0625 6.5 28.125 1.25 19.9375 1.25Z" fill="#F9F9F9"/>
<path d="M19.9375 38.75C28.125 38.75 35.0625 33.5 37.625 26.25H2.3125C4.875 33.5625 11.8125 38.75 19.9375 38.75Z" fill="#ED4C5C"/>
<path d="M2.3125 13.75C1.625 15.6875 1.25 17.8125 1.25 20C1.25 22.1875 1.625 24.3125 2.3125 26.25H37.6875C38.375 24.3125 38.75 22.1875 38.75 20C38.75 17.8125 38.375 15.6875 37.6875 13.75H2.3125Z" fill="#428BC1"/>
</svg>
