<svg width="40" height="40" viewBox="0 0 40 40" fill="none" xmlns="http://www.w3.org/2000/svg">
<rect x="0.25" y="0.25" width="39.5" height="39.5" rx="19.75" stroke="#545454" stroke-width="0.5"/>
<path d="M20 38.75C30.375 38.75 38.75 30.375 38.75 20H1.25C1.25 30.375 9.625 38.75 20 38.75Z" fill="#F9F9F9"/>
<path d="M20 1.25C9.625 1.25 1.25 9.625 1.25 20H38.75C38.75 9.625 30.375 1.25 20 1.25Z" fill="#ED4C5C"/>
<path d="M13.25 10.9375L12.5 10.3125H13.4375L13.75 9.375L14.0625 10.3125H15L14.25 10.9375L14.5 11.875L13.75 11.3125L13 11.875L13.25 10.9375ZM18.25 10.9375L17.5 10.3125H18.4375L18.75 9.375L19.0625 10.3125H20L19.25 10.9375L19.5 11.875L18.75 11.3125L18 11.875L18.25 10.9375ZM13.875 14.0625L13.125 13.4375H14.0625L14.375 12.5L14.6875 13.4375H15.625L14.875 14.0625L15.125 15L14.375 14.4375L13.625 15L13.875 14.0625ZM17.625 14.0625L16.875 13.4375H17.8125L18.125 12.5L18.4375 13.4375H19.375L18.625 14.0625L18.875 15L18.125 14.4375L17.375 15L17.625 14.0625ZM15.75 9.0625L15 8.4375H15.9375L16.25 7.5L16.5625 8.4375H17.5L16.75 9.0625L17 10L16.25 9.4375L15.5 10L15.75 9.0625Z" fill="#F9F9F9"/>
<path d="M15.25 17.5C12.25 17.5 9.875 14.9375 9.875 11.8125C9.875 8.6875 12.3125 6.125 15.25 6.125C15.5 6.125 15.6875 6.125 15.875 6.1875C15.125 5.8125 14.3125 5.625 13.4375 5.625C10.1875 5.625 7.5 8.4375 7.5 11.875C7.5 15.3125 10.1875 18.125 13.4375 18.125C14.4375 18.125 15.4375 17.875 16.25 17.375C15.9375 17.4375 15.625 17.5 15.25 17.5Z" fill="#F9F9F9"/>
</svg>
