<svg width="40" height="40" viewBox="0 0 40 40" fill="none" xmlns="http://www.w3.org/2000/svg">
<path d="M38.25 15.625C36.25 7.375 28.875 1.25 20 1.25H19.375V15.625H38.25ZM10.625 3.75C6.25 6.3125 3 10.5625 1.75 15.625H10.625V3.75ZM1.75 24.375C3 29.4375 6.25 33.6875 10.625 36.25V24.375H1.75ZM19.375 38.75H20C28.875 38.75 36.25 32.625 38.25 24.375H19.375V38.75Z" fill="#428BC1"/>
<path d="M38.25 15.625H19.375V1.25C16.1875 1.375 13.1875 2.25 10.625 3.75V15.625H1.75C1.4375 17 1.25 18.5 1.25 20C1.25 21.5 1.4375 23 1.75 24.375H10.625V36.25C13.1875 37.75 16.1875 38.625 19.375 38.75V24.375H38.25C38.5625 23 38.75 21.5 38.75 20C38.75 18.5 38.5625 17 38.25 15.625Z" fill="#FFE62E"/>
</svg>
