<svg width="40" height="40" viewBox="0 0 40 40" fill="none" xmlns="http://www.w3.org/2000/svg">
<path d="M20 1.25C13.25 1.25 7.3125 4.8125 4 10.1875V22.125H1.375C2.4375 31.5 10.375 38.75 20 38.75C26.75 38.75 32.6875 35.1875 36 29.8125V17.875H38.625C37.5625 8.5 29.625 1.25 20 1.25Z" fill="#FFE62E"/>
<path d="M1.6875 15.9375L38.3125 24.0625C38.625 22.75 38.75 21.375 38.75 20C38.75 19.3125 38.6875 18.5625 38.625 17.875L4 10.1875C2.9375 11.9375 2.125 13.875 1.6875 15.9375Z" fill="white"/>
<path d="M38.3125 24.0625L1.6875 15.9375C1.4375 17.25 1.25 18.625 1.25 20C1.25 20.6875 1.3125 21.4375 1.375 22.125L36 29.8125C37.0625 28.0625 37.875 26.125 38.3125 24.0625Z" fill="#3E4347"/>
<path d="M13.75 20.8125C13.75 24.3125 16.5 27.1875 19.9375 27.1875C23.375 27.1875 26.125 24.3125 26.125 20.8125C26.125 19.5 25.75 18.25 25.0625 17.1875C25.4375 17.9375 25.625 18.8125 25.625 19.75C25.625 22.375 23.9375 24.625 21.625 25.3125L20.375 22.25V17.3125C20.625 17.4375 21 17.5625 21.5625 17.75C23.5625 18.625 25.125 16 25.125 16C25.125 16 23.6875 16.1875 22.5625 15.0625C21.8125 14.3125 20.9375 14.6875 20.4375 15V14.375H21.4375C21.4375 14.375 21.6875 11.4375 20 10.625V12.75H19.0625V14.375H19.375V15C18.875 14.6875 18.0625 14.5 17.375 15.125C16.1875 16.25 14.8125 16.0625 14.8125 16.0625C14.8125 16.0625 16.375 18.6875 18.375 17.8125C18.8125 17.625 19.125 17.5 19.4375 17.375V22.1875L18.1875 25.25C15.9375 24.4375 14.3125 22.3125 14.3125 19.6875C14.3125 18.75 14.5 17.9375 14.875 17.125C14.1875 18.25 13.75 19.4375 13.75 20.8125ZM13.25 25.375V20.375C11.25 19.3125 11.25 17.8125 11.25 17.8125H9.6875C9.6875 20.625 11.25 21 11.25 21V25.375H13.25ZM28.75 17.8125C28.75 17.8125 28.75 19.3125 26.75 20.4375V25.4375H28.75V21.0625C28.75 21.0625 30.3125 20.6875 30.3125 17.875C30.3125 17.8125 28.75 17.8125 28.75 17.8125Z" fill="#ED4C5C"/>
<path d="M19.9375 28.25C17.6875 28.25 15.75 27.125 14.5 25.375L12.625 28.25C12.625 28.25 14.3125 28.125 15.875 29C17.4375 29.875 17.875 29 19.9375 29C22 29 22.4375 29.875 24 29C25.5625 28.125 27.25 28.25 27.25 28.25L25.375 25.375C24.125 27.125 22.1875 28.25 19.9375 28.25Z" fill="#ED4C5C"/>
</svg>
