<svg width="40" height="40" viewBox="0 0 40 40" fill="none" xmlns="http://www.w3.org/2000/svg">
<path d="M35 8.75H20V12.5H37.1875C36.625 11.1875 35.875 9.875 35 8.75Z" fill="#ED4C5C"/>
<path d="M38.375 23.75C38.625 22.5625 38.75 21.3125 38.75 20H1.25C1.25 21.3125 1.375 22.5625 1.625 23.75H38.375Z" fill="#F9F9F9"/>
<path d="M20 1.25V5H31.25C28.125 2.625 24.25 1.25 20 1.25Z" fill="#ED4C5C"/>
<path d="M20 8.75H35C33.9375 7.3125 32.6875 6.0625 31.25 5H20V8.75ZM37.1875 12.5H20V16.25H38.375C38.125 14.9375 37.6875 13.6875 37.1875 12.5Z" fill="#F9F9F9"/>
<path d="M20 16.25V20H38.75C38.75 18.6875 38.625 17.4375 38.375 16.25H20ZM2.8125 27.5H37.1875C37.6875 26.3125 38.125 25.0625 38.375 23.75H1.625C1.875 25.0625 2.3125 26.3125 2.8125 27.5Z" fill="#ED4C5C"/>
<path d="M5 31.25H35C35.875 30.125 36.625 28.8125 37.1875 27.5H2.8125C3.375 28.8125 4.125 30.125 5 31.25Z" fill="#F9F9F9"/>
<path d="M5 31.25C6.0625 32.6875 7.3125 33.9375 8.75 35H31.25C32.6875 33.9375 33.9375 32.6875 35 31.25H5Z" fill="#ED4C5C"/>
<path d="M8.75 35C11.875 37.375 15.75 38.75 20 38.75C24.25 38.75 28.125 37.375 31.25 35H8.75Z" fill="#F9F9F9"/>
<path d="M20 1.25C9.625 1.25 1.25 9.625 1.25 20H20V1.25Z" fill="#2A5F9E"/>
<path d="M12.4375 16C10.5625 16 9 14.4375 9 12.5C9 10.5625 10.5625 9 12.4375 9C13.1875 9 13.8125 9.25 14.375 9.625C13.5625 8.6875 12.4375 8.125 11.125 8.125C8.75 8.125 6.875 10.0625 6.875 12.5C6.875 14.9375 8.8125 16.875 11.125 16.875C12.4375 16.875 13.5625 16.3125 14.375 15.375C13.8125 15.75 13.125 16 12.4375 16ZM16.25 11.75L16.6875 10.625L16.5625 11.8125L17.4375 11L16.8125 12.0625L17.9375 11.6875L16.9375 12.3125L18.125 12.5L16.9375 12.6875L17.9375 13.3125L16.8125 12.9375L17.4375 14L16.5625 13.1875L16.6875 14.375L16.25 13.25L15.8125 14.375L15.9375 13.1875L15.0625 14L15.6875 12.9375L14.5625 13.3125L15.5625 12.6875L14.375 12.5L15.5625 12.3125L14.5625 11.6875L15.6875 12.0625L15.0625 11L15.9375 11.8125L15.8125 10.625L16.25 11.75Z" fill="#FFE62E"/>
</svg>
