<svg width="77" height="67" viewBox="0 0 77 67" fill="none" xmlns="http://www.w3.org/2000/svg">
<g id="mail fast">
<path id="Rectangle 21" d="M61.5555 0.555664H17.5555C9.45535 0.555664 2.88885 7.12215 2.88885 15.2223V51.889C2.88885 59.9892 9.45534 66.5557 17.5555 66.5557H61.5555C69.6557 66.5557 76.2222 59.9892 76.2222 51.889V15.2223C76.2222 7.12216 69.6557 0.555664 61.5555 0.555664Z" fill="#272727"/>
<path id="Vector 2508 (Stroke)" fill-rule="evenodd" clip-rule="evenodd" d="M15.2677 17.364C16.1101 16.1003 17.8175 15.7588 19.0812 16.6013L32.9456 25.8442C36.9484 28.5128 42.1632 28.5128 46.166 25.8442L60.0304 16.6013C61.2941 15.7588 63.0015 16.1003 63.8439 17.364C64.6864 18.6277 64.3449 20.3351 63.0812 21.1776L49.2168 30.4205C43.3666 34.3207 35.745 34.3207 29.8948 30.4205L16.0304 21.1776C14.7667 20.3351 14.4252 18.6277 15.2677 17.364Z" fill="#EDEDED"/>
<path id="Vector 2506 (Stroke)" fill-rule="evenodd" clip-rule="evenodd" d="M0.138855 44.5557C0.138855 43.0369 1.37007 41.8057 2.88885 41.8057H24.8889C26.4076 41.8057 27.6389 43.0369 27.6389 44.5557C27.6389 46.0744 26.4076 47.3057 24.8889 47.3057H2.88885C1.37007 47.3057 0.138855 46.0744 0.138855 44.5557Z" fill="#EDEDED"/>
<path id="Vector 2507 (Stroke)" fill-rule="evenodd" clip-rule="evenodd" d="M0.138855 55.5557C0.138855 54.0369 1.37007 52.8057 2.88885 52.8057H24.8889C26.4076 52.8057 27.6389 54.0369 27.6389 55.5557C27.6389 57.0744 26.4076 58.3057 24.8889 58.3057H2.88885C1.37007 58.3057 0.138855 57.0744 0.138855 55.5557Z" fill="#EDEDED"/>
</g>
</svg>
