<svg width="67" height="70" viewBox="0 0 67 70" fill="none" xmlns="http://www.w3.org/2000/svg">
<g id="security">
<path id="Rectangle 96" d="M27.3769 1.53656L9.05157 9.68116C3.75096 12.037 0.252991 17.3127 0.590287 23.1035C1.90894 45.7423 8.53844 55.7088 25.7649 67.3713C30.3284 70.4609 36.3438 70.4684 40.9039 67.3739C58.1834 55.6479 64.5757 45.5405 66.0102 23.1819C66.3842 17.3529 62.8806 12.0211 57.543 9.64886L39.2903 1.53656C35.498 -0.148906 31.1692 -0.148903 27.3769 1.53656Z" fill="#272727"/>
<path id="Vector 1265 (Stroke)" fill-rule="evenodd" clip-rule="evenodd" d="M46.1443 26.1526C47.2873 27.1527 47.4031 28.8901 46.403 30.0331L35.88 42.0594C33.6188 44.6436 29.7239 44.9896 27.0425 42.8445L20.6155 37.7029C19.4295 36.7542 19.2373 35.0236 20.186 33.8376C21.1348 32.6517 22.8654 32.4594 24.0513 33.4081L30.4784 38.5498C30.8614 38.8562 31.4178 38.8068 31.7409 38.4376L42.2638 26.4113C43.264 25.2683 45.0013 25.1525 46.1443 26.1526Z" fill="#EDEDED"/>
</g>
</svg>
