<svg width="66" height="74" viewBox="0 0 66 74" fill="none" xmlns="http://www.w3.org/2000/svg">
<g id="air plane">
<path id="Rectangle 971" d="M50.1768 67.4574L43.2591 58.0534C42.2973 56.746 41.7841 55.2098 41.7841 53.6384V9.11583C41.7841 4.26541 37.8521 0.333374 33.0017 0.333374C28.1512 0.333374 24.2192 4.26541 24.2192 9.11583V53.6384C24.2192 55.2098 23.706 56.746 22.7442 58.0534L15.8265 67.4574C13.3287 70.853 17.4164 75.0495 21.444 73.2244L29.074 69.767C31.5465 68.6466 34.4568 68.6466 36.9293 69.767L44.5593 73.2244C48.5869 75.0495 52.6747 70.853 50.1768 67.4574Z" fill="#272727"/>
<g id="Rectangle 972">
<path d="M20.0898 22.5696L2.07168 32.7754C-1.66954 34.8945 -0.0127909 40.1298 4.39903 40.1298H19.8263C22.2515 40.1298 24.2175 41.9115 24.2175 44.1094V15.8202C24.2175 18.5645 22.6576 21.1152 20.0898 22.5696Z" fill="black"/>
<path d="M63.9283 32.7754L45.9102 22.5696C43.3424 21.1152 41.7825 18.5645 41.7825 15.8202V44.1094C41.7825 41.9115 43.7485 40.1298 46.1737 40.1298H61.601C66.0128 40.1298 67.6695 34.8945 63.9283 32.7754Z" fill="black"/>
<path d="M20.0898 22.5696L2.07168 32.7754C-1.66954 34.8945 -0.0127909 40.1298 4.39903 40.1298H19.8263C22.2515 40.1298 24.2175 41.9115 24.2175 44.1094V15.8202C24.2175 18.5645 22.6576 21.1152 20.0898 22.5696Z" stroke="#272727"/>
<path d="M63.9283 32.7754L45.9102 22.5696C43.3424 21.1152 41.7825 18.5645 41.7825 15.8202V44.1094C41.7825 41.9115 43.7485 40.1298 46.1737 40.1298H61.601C66.0128 40.1298 67.6695 34.8945 63.9283 32.7754Z" stroke="#272727"/>
</g>
</g>
</svg>
