<svg width="133" height="132" viewBox="0 0 133 132" fill="none" xmlns="http://www.w3.org/2000/svg">
<circle cx="66.5" cy="66" r="66" fill="#6295D6"/>
<rect width="72" height="72" transform="translate(31 30)" fill="#6295D6"/>
<path d="M83.0348 40.6402C81.3957 41.8548 80.3333 43.8033 80.3333 46C80.3333 49.6819 77.3486 52.6667 73.6667 52.6667C69.9848 52.6667 67 55.6514 67 59.3333C67 63.0152 69.9848 66 73.6667 66C77.3486 66 80.3333 68.9848 80.3333 72.6667C80.3333 76.3486 83.3181 79.3333 87 79.3333H93.8816M83.0348 40.6402C78.3967 37.7015 72.897 36 67 36C51.5582 36 38.8412 47.6668 37.1831 62.6667M83.0348 40.6402C91.4281 45.9584 97 55.3285 97 66C97 82.5685 83.5685 96 67 96C59.8557 96 53.2946 93.5027 48.1422 89.3333M48.1422 89.3333L57 89.3333C60.6819 89.3333 63.6667 86.3486 63.6667 82.6667C63.6667 78.9848 60.6819 76 57 76C53.3181 76 50.3333 73.0152 50.3333 69.3333C50.3333 65.6514 47.3486 62.6667 43.6667 62.6667H37.1831M48.1422 89.3333C41.3456 83.8335 37 75.4242 37 66C37 64.8733 37.0621 63.7611 37.1831 62.6667" stroke="#FFFCF7" stroke-width="2" stroke-linecap="round"/>
</svg>
