<svg width="70" height="77" viewBox="0 0 70 77" fill="none" xmlns="http://www.w3.org/2000/svg">
<g id="home location">
<path id="Vector 300" d="M68.3359 60.4341V31.7736C68.3359 27.3334 66.3572 23.1282 62.9464 20.3196L44.6131 5.2233C39.2142 0.77761 31.4577 0.777619 26.0588 5.22331L7.72543 20.3196C4.31464 23.1282 2.33594 27.3334 2.33594 31.7736V60.4341C2.33594 68.6015 8.90243 75.2224 17.0026 75.2224H53.6693C61.7694 75.2224 68.3359 68.6014 68.3359 60.4341Z" fill="#272727" stroke="#272727" stroke-width="3" stroke-linejoin="round"/>
<path id="Subtract" fill-rule="evenodd" clip-rule="evenodd" d="M35.3372 60.5557C35.3372 60.5557 48.1706 49.8684 48.1706 40.7557C48.1706 31.643 41.4124 27.5557 35.3372 27.5557C29.2621 27.5557 22.5039 31.643 22.5039 40.7557C22.5039 49.8684 35.3372 60.5557 35.3372 60.5557ZM35.3372 45.889C38.3748 45.889 40.8372 43.4266 40.8372 40.389C40.8372 37.3514 38.3748 34.889 35.3372 34.889C32.2997 34.889 29.8372 37.3514 29.8372 40.389C29.8372 43.4266 32.2997 45.889 35.3372 45.889Z" fill="white"/>
</g>
</svg>
