<svg width="49" height="52" viewBox="0 0 49 52" fill="none" xmlns="http://www.w3.org/2000/svg">
<g id="security">
<path id="Rectangle 96" opacity="0.4" d="M20.1694 1.75894L6.84184 7.68229C2.98685 9.39562 0.442877 13.2325 0.688183 17.444C1.6472 33.9086 6.46866 41.1569 18.997 49.6388C22.3159 51.8857 26.6907 51.8912 30.0072 49.6406C42.5741 41.1126 47.223 33.7618 48.2663 17.501C48.5383 13.2617 45.9902 9.38408 42.1083 7.6588L28.8337 1.75894C26.0756 0.533151 22.9274 0.533153 20.1694 1.75894Z" fill="#6295D6"/>
<path id="Vector 1265 (Stroke)" fill-rule="evenodd" clip-rule="evenodd" d="M33.8171 19.6616C34.6484 20.389 34.7326 21.6525 34.0052 22.4838L26.3521 31.2302C24.7076 33.1096 21.875 33.3613 19.9249 31.8012L15.2507 28.0618C14.3882 27.3718 14.2483 26.1132 14.9383 25.2507C15.6284 24.3882 16.8869 24.2484 17.7495 24.9384L22.4237 28.6777C22.7022 28.9006 23.1069 28.8646 23.3418 28.5961L30.9949 19.8498C31.7223 19.0185 32.9858 18.9343 33.8171 19.6616Z" fill="#6295D6"/>
</g>
</svg>
