<svg width="25" height="24" viewBox="0 0 25 24" fill="none" xmlns="http://www.w3.org/2000/svg">
<g id="star">
<path id="Vector" d="M21.7838 8.27559L15.833 7.41075L13.1729 2.01778C13.1002 1.87013 12.9807 1.75059 12.833 1.67794C12.4627 1.49513 12.0127 1.64747 11.8276 2.01778L9.16741 7.41075L3.21663 8.27559C3.05257 8.29903 2.90257 8.37638 2.78773 8.49356C2.64889 8.63627 2.57238 8.82825 2.57502 9.02733C2.57765 9.22642 2.65922 9.41631 2.80179 9.55528L7.10726 13.7529L6.09007 19.6803C6.06622 19.8182 6.08148 19.96 6.13411 20.0896C6.18675 20.2193 6.27467 20.3316 6.38789 20.4138C6.50111 20.496 6.6351 20.5449 6.77468 20.5549C6.91426 20.5648 7.05383 20.5355 7.17757 20.4701L12.5002 17.6717L17.8229 20.4701C17.9682 20.5475 18.1369 20.5732 18.2987 20.5451C18.7065 20.4748 18.9807 20.0881 18.9104 19.6803L17.8932 13.7529L22.1987 9.55528C22.3159 9.44044 22.3932 9.29044 22.4166 9.12638C22.4799 8.71622 22.194 8.33653 21.7838 8.27559Z" fill="#EFA969"/>
</g>
</svg>
