<svg width="41" height="40" viewBox="0 0 41 40" fill="none" xmlns="http://www.w3.org/2000/svg">
<g id="Huge-icon/interface/outline/plus 01">
<path id="Vector" d="M17.1665 29.9993C17.1665 31.8403 18.6589 33.3327 20.4998 33.3327C22.3408 33.3327 23.8332 31.8403 23.8332 29.9993V23.3327H30.4998C32.3408 23.3327 33.8332 21.8403 33.8332 19.9993C33.8332 18.1584 32.3408 16.666 30.4998 16.666H23.8332V9.99935C23.8332 8.1584 22.3408 6.66602 20.4998 6.66602C18.6589 6.66602 17.1665 8.1584 17.1665 9.99935V16.666L10.4998 16.666C8.65889 16.666 7.1665 18.1584 7.1665 19.9993C7.1665 21.8403 8.65889 23.3327 10.4998 23.3327L17.1665 23.3327V29.9993Z" stroke="#545454" stroke-width="1.5" stroke-linejoin="round"/>
</g>
</svg>
