<svg width="41" height="40" viewBox="0 0 41 40" fill="none" xmlns="http://www.w3.org/2000/svg">
<path d="M37.1667 20.0002C37.1667 29.2049 29.7048 36.6668 20.5 36.6668C11.2953 36.6668 3.83337 29.2049 3.83337 20.0002C3.83337 10.7954 11.2953 3.3335 20.5 3.3335C29.7048 3.3335 37.1667 10.7954 37.1667 20.0002Z" fill="#3B7ACC"/>
<path d="M13.8333 20.0002L18.0577 23.8022C18.7769 24.4494 19.8942 24.3503 20.4882 23.5866L27.1666 15.0002M20.4999 36.6668C29.7047 36.6668 37.1666 29.2049 37.1666 20.0002C37.1666 10.7954 29.7047 3.3335 20.4999 3.3335C11.2952 3.3335 3.83325 10.7954 3.83325 20.0002C3.83325 29.2049 11.2952 36.6668 20.4999 36.6668Z" stroke="white" stroke-width="1.5" stroke-linecap="round" stroke-linejoin="round"/>
</svg>
