<svg width="32" height="32" viewBox="0 0 32 32" fill="none" xmlns="http://www.w3.org/2000/svg">
<g id="Huge-icon/interface/solid/remove-circle">
<path id="Subtract" fill-rule="evenodd" clip-rule="evenodd" d="M29.3337 16.0013C29.3337 23.3651 23.3641 29.3346 16.0003 29.3346C8.63653 29.3346 2.66699 23.3651 2.66699 16.0013C2.66699 8.63751 8.63653 2.66797 16.0003 2.66797C23.3641 2.66797 29.3337 8.63751 29.3337 16.0013ZM20.4787 20.4796C20.0882 20.8701 19.455 20.8701 19.0645 20.4796L16.0003 17.4154L12.9362 20.4796C12.5457 20.8701 11.9125 20.8701 11.522 20.4796C11.1315 20.0891 11.1315 19.4559 11.522 19.0654L14.5861 16.0012L11.522 12.9371C11.1315 12.5466 11.1315 11.9134 11.522 11.5229C11.9125 11.1324 12.5457 11.1324 12.9362 11.5229L16.0003 14.587L19.0645 11.5229C19.455 11.1324 20.0881 11.1324 20.4787 11.5229C20.8692 11.9134 20.8692 12.5466 20.4787 12.9371L17.4146 16.0012L20.4787 19.0654C20.8692 19.4559 20.8692 20.089 20.4787 20.4796Z" fill="#EB9444"/>
</g>
</svg>
