<svg width="20" height="15" viewBox="0 0 20 15" fill="none" xmlns="http://www.w3.org/2000/svg">
<g id="send fast">
<path id="Combo shape" fill-rule="evenodd" clip-rule="evenodd" d="M7.52022 0.238635L17.815 5.38289C19.4232 6.18652 19.4232 8.48015 17.815 9.28377L7.52022 14.428C5.68922 15.343 3.71908 13.4615 4.55049 11.5919L6.05049 8.21898C6.07943 8.15391 6.10503 8.08778 6.12729 8.02083L9.85449 8.02083C10.2342 8.02083 10.542 7.71303 10.542 7.33333C10.542 6.95364 10.2342 6.64583 9.85449 6.64583L6.12729 6.64583C6.10503 6.57888 6.07943 6.51275 6.05049 6.44768L4.55049 3.07473C3.71908 1.20518 5.68923 -0.676309 7.52022 0.238635ZM0 5.5C0 5.1203 0.307804 4.8125 0.6875 4.8125H2.52083C2.90053 4.8125 3.20833 5.1203 3.20833 5.5C3.20833 5.8797 2.90053 6.1875 2.52083 6.1875H0.6875C0.307804 6.1875 0 5.8797 0 5.5ZM0.6875 8.47917C0.307804 8.47917 0 8.78697 0 9.16667C0 9.54636 0.307804 9.85417 0.6875 9.85417H2.52083C2.90053 9.85417 3.20833 9.54636 3.20833 9.16667C3.20833 8.78697 2.90053 8.47917 2.52083 8.47917H0.6875Z" fill="#3B7ACC"/>
</g>
</svg>
