<svg width="25" height="24" viewBox="0 0 25 24" fill="none" xmlns="http://www.w3.org/2000/svg">
<g id="mdi:airplane-plus">
<path id="Vector" d="M15.9026 13.5974C15.3174 13.9857 14.8011 14.4673 14.3739 15.0219L12.4937 11.4024L12.1799 10.7983L11.6974 11.2784L7.80736 15.1484L7.63105 15.3238L7.66456 15.5702L7.97135 17.8261L7.56383 18.2375L6.11721 15.6303L6.04762 15.5049L5.92212 15.4354L3.32305 13.9969L3.73715 13.5828L5.97013 13.898L6.21755 13.9329L6.39401 13.756L10.284 9.85596L10.7643 9.37446L10.1614 9.05965L3.33509 5.49488L4.06767 4.7623L12.9977 6.82009L13.2677 6.8823L13.4636 6.68641L17.3536 2.79641L17.3536 2.79642L17.3557 2.79425C17.4478 2.70104 17.5575 2.62703 17.6784 2.57652C17.7993 2.52601 17.929 2.5 18.06 2.5C18.191 2.5 18.3207 2.52601 18.4416 2.57652C18.5624 2.62698 18.672 2.70089 18.764 2.79398C19.1573 3.19472 19.1438 3.84489 18.7727 4.20316L18.7726 4.2031L18.7664 4.20931L14.8764 8.09931L14.6806 8.2952L14.7428 8.56516L15.9026 13.5974ZM20 18.0029V18.5029H20.5H23V19.5029H20.5H20V20.0029V22.5029H19V20.0029V19.5029H18.5H16V18.5029H18.5H19V18.0029V15.5029H20V18.0029Z" stroke="#545454"/>
</g>
</svg>
