<svg width="18" height="18" viewBox="0 0 18 18" fill="none" xmlns="http://www.w3.org/2000/svg">
<g id="exchange">
<g id="Combo shape">
<path fill-rule="evenodd" clip-rule="evenodd" d="M14.5304 0.46967C14.2375 0.176777 13.7626 0.176777 13.4697 0.46967C13.1768 0.762563 13.1768 1.23744 13.4697 1.53033L15.1894 3.25H6.00002C2.82438 3.25 0.250022 5.82436 0.250022 9V10C0.250022 10.4142 0.585808 10.75 1.00002 10.75C1.41424 10.75 1.75002 10.4142 1.75002 10V9C1.75002 6.65279 3.65281 4.75 6.00002 4.75H17C17.3034 4.75 17.5768 4.56727 17.6929 4.28701C17.809 4.00676 17.7449 3.68417 17.5304 3.46967L14.5304 0.46967ZM3.46969 17.5303C3.76259 17.8232 4.23746 17.8232 4.53035 17.5303C4.82325 17.2374 4.82325 16.7626 4.53035 16.4697L2.81068 14.75H12C15.1757 14.75 17.75 12.1756 17.75 9V8C17.75 7.58579 17.4142 7.25 17 7.25C16.5858 7.25 16.25 7.58579 16.25 8V9C16.25 11.3472 14.3472 13.25 12 13.25H1.00002C0.696676 13.25 0.423198 13.4327 0.307113 13.713C0.191026 13.9932 0.255193 14.3158 0.469692 14.5303L3.46969 17.5303Z" fill="#FFFCF7"/>
<path d="M13.4697 0.46967L13.6465 0.646447V0.646446L13.4697 0.46967ZM14.5304 0.46967L14.3536 0.646446L14.3536 0.646447L14.5304 0.46967ZM13.4697 1.53033L13.6465 1.35355L13.4697 1.53033ZM15.1894 3.25V3.5C15.2905 3.5 15.3816 3.43909 15.4203 3.34567C15.459 3.25225 15.4376 3.14472 15.3661 3.07322L15.1894 3.25ZM17.6929 4.28701L17.462 4.19134V4.19134L17.6929 4.28701ZM17.5304 3.46967L17.7071 3.29289V3.29289L17.5304 3.46967ZM4.53035 17.5303L4.70713 17.7071H4.70713L4.53035 17.5303ZM3.46969 17.5303L3.64647 17.3536L3.46969 17.5303ZM4.53035 16.4697L4.70713 16.2929H4.70713L4.53035 16.4697ZM2.81068 14.75V14.5C2.70957 14.5 2.61841 14.5609 2.57971 14.6543C2.54102 14.7477 2.56241 14.8553 2.63391 14.9268L2.81068 14.75ZM0.307113 13.713L0.538083 13.8087L0.538083 13.8087L0.307113 13.713ZM0.469692 14.5303L0.292915 14.7071H0.292915L0.469692 14.5303ZM13.6465 0.646446C13.8417 0.451185 14.1583 0.451185 14.3536 0.646446L14.7071 0.292893C14.3166 -0.0976312 13.6834 -0.0976312 13.2929 0.292893L13.6465 0.646446ZM13.6465 1.35355C13.4512 1.15829 13.4512 0.841709 13.6465 0.646447L13.2929 0.292893C12.9024 0.683417 12.9024 1.31658 13.2929 1.70711L13.6465 1.35355ZM15.3661 3.07322L13.6465 1.35355L13.2929 1.70711L15.0126 3.42678L15.3661 3.07322ZM6.00002 3.5H15.1894V3H6.00002V3.5ZM0.500022 9C0.500022 5.96243 2.96246 3.5 6.00002 3.5V3C2.68631 3 2.17259e-05 5.68629 2.17259e-05 9H0.500022ZM0.500022 10V9H2.17259e-05V10H0.500022ZM1.00002 10.5C0.723879 10.5 0.500022 10.2761 0.500022 10H2.17259e-05C2.17259e-05 10.5523 0.447737 11 1.00002 11V10.5ZM1.50002 10C1.50002 10.2761 1.27616 10.5 1.00002 10.5V11C1.55231 11 2.00002 10.5523 2.00002 10H1.50002ZM1.50002 9V10H2.00002V9H1.50002ZM6.00002 4.5C3.51474 4.5 1.50002 6.51472 1.50002 9H2.00002C2.00002 6.79086 3.79088 5 6.00002 5V4.5ZM17 4.5H6.00002V5H17V4.5ZM17.462 4.19134C17.3846 4.37818 17.2023 4.5 17 4.5V5C17.4045 5 17.7691 4.75636 17.9239 4.38268L17.462 4.19134ZM17.3536 3.64645C17.4966 3.78945 17.5394 4.0045 17.462 4.19134L17.9239 4.38268C18.0787 4.00901 17.9931 3.57889 17.7071 3.29289L17.3536 3.64645ZM14.3536 0.646447L17.3536 3.64645L17.7071 3.29289L14.7071 0.292893L14.3536 0.646447ZM4.35358 17.3536C4.15831 17.5488 3.84173 17.5488 3.64647 17.3536L3.29292 17.7071C3.68344 18.0976 4.31661 18.0976 4.70713 17.7071L4.35358 17.3536ZM4.35358 16.6464C4.54884 16.8417 4.54884 17.1583 4.35358 17.3536L4.70713 17.7071C5.09765 17.3166 5.09765 16.6834 4.70713 16.2929L4.35358 16.6464ZM2.63391 14.9268L4.35358 16.6464L4.70713 16.2929L2.98746 14.5732L2.63391 14.9268ZM12 14.5H2.81068V15H12V14.5ZM17.5 9C17.5 12.0376 15.0376 14.5 12 14.5V15C15.3137 15 18 12.3137 18 9H17.5ZM17.5 8V9H18V8H17.5ZM17 7.5C17.2762 7.5 17.5 7.72386 17.5 8H18C18 7.44772 17.5523 7 17 7V7.5ZM16.5 8C16.5 7.72386 16.7239 7.5 17 7.5V7C16.4477 7 16 7.44772 16 8H16.5ZM16.5 9V8H16V9H16.5ZM12 13.5C14.4853 13.5 16.5 11.4853 16.5 9H16C16 11.2091 14.2092 13 12 13V13.5ZM1.00002 13.5H12V13H1.00002V13.5ZM0.538083 13.8087C0.615473 13.6218 0.797791 13.5 1.00002 13.5V13C0.59556 13 0.230923 13.2436 0.0761429 13.6173L0.538083 13.8087ZM0.646468 14.3536C0.503469 14.2106 0.460692 13.9955 0.538083 13.8087L0.0761436 13.6173C-0.0786394 13.991 0.00691704 14.4211 0.292915 14.7071L0.646468 14.3536ZM3.64647 17.3536L0.646468 14.3536L0.292915 14.7071L3.29292 17.7071L3.64647 17.3536Z" fill="#FFFCF7"/>
</g>
</g>
</svg>
