<svg xmlns="http://www.w3.org/2000/svg" width="16" height="16" viewBox="0 0 16 16" fill="none">
  <path fill-rule="evenodd" clip-rule="evenodd" d="M12.6093 0.89009C12.3652 0.646012 11.9695 0.646012 11.7254 0.89009C11.4813 1.13417 11.4813 1.5299 11.7254 1.77397L13.1585 3.20703H5.50067C2.8543 3.20703 0.709002 5.35233 0.709002 7.9987V8.83203C0.709002 9.17721 0.988824 9.45703 1.334 9.45703C1.67918 9.45703 1.959 9.17721 1.959 8.83203V7.9987C1.959 6.04269 3.54466 4.45703 5.50067 4.45703H14.6673C14.9201 4.45703 15.148 4.30475 15.2448 4.07121C15.3415 3.83766 15.288 3.56884 15.1093 3.39009L12.6093 0.89009ZM3.39206 15.1073C3.63614 15.3514 4.03187 15.3514 4.27594 15.1073C4.52002 14.8632 4.52002 14.4675 4.27594 14.2234L2.84289 12.7904H10.5007C13.147 12.7904 15.2923 10.6451 15.2923 7.9987V7.16537C15.2923 6.82019 15.0125 6.54037 14.6673 6.54037C14.3222 6.54037 14.0423 6.82019 14.0423 7.16537V7.9987C14.0423 9.95471 12.4567 11.5404 10.5007 11.5404H1.334C1.08121 11.5404 0.853316 11.6926 0.756579 11.9262C0.659839 12.1597 0.713312 12.4286 0.892061 12.6073L3.39206 15.1073Z" fill="#272727"/>
</svg>