<svg xmlns="http://www.w3.org/2000/svg" width="16" height="21" viewBox="0 0 16 21" fill="none">
<path d="M14.5001 0.4375H10.7501C10.6009 0.4375 10.4579 0.496763 10.3524 0.602252C10.2469 0.707742 10.1876 0.850816 10.1876 1C10.1876 1.14918 10.2469 1.29226 10.3524 1.39775C10.4579 1.50324 10.6009 1.5625 10.7501 1.5625H13.1426L10.3301 4.36938C9.66852 3.71377 8.85906 3.22675 7.96991 2.94934C7.08077 2.67194 6.13798 2.61227 5.22095 2.77537C4.30393 2.93847 3.43953 3.31956 2.70056 3.88653C1.9616 4.45351 1.3697 5.18976 0.974738 6.03329C0.579774 6.87681 0.393307 7.8029 0.431042 8.73355C0.468778 9.6642 0.72961 10.5722 1.19157 11.3809C1.65353 12.1897 2.30309 12.8756 3.08553 13.3809C3.86798 13.8862 4.76039 14.1961 5.68761 14.2844V16.1875H3.25011C3.10093 16.1875 2.95785 16.2468 2.85236 16.3523C2.74687 16.4577 2.68761 16.6008 2.68761 16.75C2.68761 16.8992 2.74687 17.0423 2.85236 17.1477C2.95785 17.2532 3.10093 17.3125 3.25011 17.3125H5.68761V19.75C5.68761 19.8992 5.74687 20.0423 5.85236 20.1477C5.95785 20.2532 6.10093 20.3125 6.25011 20.3125C6.3993 20.3125 6.54237 20.2532 6.64786 20.1477C6.75335 20.0423 6.81261 19.8992 6.81261 19.75V17.3125H9.25011C9.3993 17.3125 9.54237 17.2532 9.64786 17.1477C9.75335 17.0423 9.81261 16.8992 9.81261 16.75C9.81261 16.6008 9.75335 16.4577 9.64786 16.3523C9.54237 16.2468 9.3993 16.1875 9.25011 16.1875H6.81261V14.2844C7.81568 14.1863 8.776 13.829 9.59931 13.2477C10.4226 12.6664 11.0806 11.881 11.5088 10.9685C11.9369 10.0561 12.1204 9.04809 12.0413 8.04335C11.9622 7.0386 11.6232 6.07168 11.0576 5.2375L13.9376 2.3575V4.75C13.9376 4.89918 13.9969 5.04226 14.1024 5.14775C14.2079 5.25324 14.3509 5.3125 14.5001 5.3125C14.6493 5.3125 14.7924 5.25324 14.8979 5.14775C15.0033 5.04226 15.0626 4.89918 15.0626 4.75V1C15.0626 0.850816 15.0033 0.707742 14.8979 0.602252C14.7924 0.496763 14.6493 0.4375 14.5001 0.4375ZM6.25011 13.1875C5.32301 13.1875 4.41673 12.9126 3.64588 12.3975C2.87502 11.8824 2.27421 11.1504 1.91943 10.2938C1.56464 9.4373 1.47181 8.4948 1.65268 7.58551C1.83355 6.67623 2.27999 5.841 2.93555 5.18544C3.59111 4.52988 4.42634 4.08344 5.33563 3.90257C6.24491 3.7217 7.18741 3.81453 8.04394 4.16931C8.90047 4.5241 9.63256 5.12491 10.1476 5.89576C10.6627 6.66662 10.9376 7.5729 10.9376 8.5C10.9361 9.74275 10.4418 10.9342 9.56303 11.8129C8.68428 12.6917 7.49286 13.186 6.25011 13.1875Z" fill="#FF3B30"></path>
</svg>