<svg width="26" height="25" viewBox="0 0 26 25" fill="none" xmlns="http://www.w3.org/2000/svg">
<g id="Buy Luaggage_icon">
<path id="Vector" d="M16 21.5H5C2.79086 21.5 1 19.7091 1 17.5V13.5V9.5C1 7.29086 2.79086 5.5 5 5.5H17C19.2091 5.5 21 7.29086 21 9.5V14M7 5.5V4.5C7 2.84315 8.34315 1.5 10 1.5H12C13.6569 1.5 15 2.84315 15 4.5V5.5" stroke="#7F7F7F" stroke-width="1.5" stroke-linecap="round"/>
<circle id="Ellipse 1264" cx="20.5" cy="19" r="4.75" stroke="#7F7F7F" stroke-width="1.5"/>
<path id="Union" fill-rule="evenodd" clip-rule="evenodd" d="M20.9995 21.0143V19.6634V19.4994H21.1773H22.5285C22.8046 19.4994 23.0285 19.2755 23.0285 18.9994C23.0285 18.7232 22.8046 18.4994 22.5285 18.4994H21.1773H20.9995V18.3119L20.9995 16.9609C20.9995 16.6848 20.7757 16.4609 20.4995 16.4609C20.2234 16.4609 19.9995 16.6848 19.9995 16.9609V18.3119V18.4994H19.8257H18.4746C18.1985 18.4994 17.9746 18.7232 17.9746 18.9994C17.9746 19.2755 18.1985 19.4994 18.4746 19.4994H19.8257H19.9995V19.6634V21.0143C19.9995 21.2905 20.2234 21.5143 20.4995 21.5143C20.7757 21.5143 20.9995 21.2905 20.9995 21.0143Z" fill="#7F7F7F"/>
</g>
</svg>
