<svg width="23" height="20" viewBox="0 0 23 20" fill="none" xmlns="http://www.w3.org/2000/svg">
<path d="M7.5 3.02478C5.63272 3.23379 3.35997 4.78189 2.22215 5.64222C1.75538 5.99516 1.5 6.55187 1.5 7.13706V16.8065C1.5 17.6599 2.5279 18.1548 3.23627 17.6788C4.44575 16.866 6.08869 15.9431 7.5 15.7851M7.5 3.02478V15.7851M7.5 3.02478C9.90012 2.75613 11.2775 4.73934 13.1116 5.71689M7.5 15.7851C10.8183 15.4137 12.1817 19.3466 15.5 18.9752M15.5 18.9752C17.3673 18.7662 19.64 17.2181 20.7778 16.3578C21.2446 16.0048 21.5 15.4481 21.5 14.8629V5.19353C21.5 4.34007 20.4721 3.84517 19.7637 4.32119C19.1339 4.74441 18.3866 5.19749 17.6157 5.55689M15.5 18.9752V15.059" stroke="#545454" stroke-width="1.25"/>
<path d="M18.1673 10.0567L17.9594 9.46727L18.1673 10.0567ZM12.0342 7.00153L11.4931 6.68882H11.4931L12.0342 7.00153ZM19.1311 7.31987L18.564 7.58269L19.1311 7.31987ZM12.3641 6.51654L12.8538 6.90489H12.8538L12.3641 6.51654ZM16.875 3C16.875 3.75939 16.2594 4.375 15.5 4.375V5.625C16.9497 5.625 18.125 4.44975 18.125 3H16.875ZM15.5 4.375C14.7406 4.375 14.125 3.75939 14.125 3H12.875C12.875 4.44975 14.0503 5.625 15.5 5.625V4.375ZM14.125 3C14.125 2.24061 14.7406 1.625 15.5 1.625V0.375C14.0503 0.375 12.875 1.55025 12.875 3H14.125ZM15.5 1.625C16.2594 1.625 16.875 2.24061 16.875 3H18.125C18.125 1.55025 16.9497 0.375 15.5 0.375V1.625ZM16.875 11V13H18.125V11H16.875ZM14.125 13V11H12.875V13H14.125ZM15.5 14.375C14.7406 14.375 14.125 13.7594 14.125 13H12.875C12.875 14.4497 14.0503 15.625 15.5 15.625V14.375ZM16.875 13C16.875 13.7594 16.2594 14.375 15.5 14.375V15.625C16.9497 15.625 18.125 14.4497 18.125 13H16.875ZM10.875 9C10.875 9.89746 11.6025 10.625 12.5 10.625V9.375C12.2929 9.375 12.125 9.20711 12.125 9H10.875ZM14.125 11C14.125 10.1025 13.3975 9.375 12.5 9.375V10.625C12.7071 10.625 12.875 10.7929 12.875 11H14.125ZM18.875 9C18.875 9.20711 18.7071 9.375 18.5 9.375V10.625C19.3975 10.625 20.125 9.89746 20.125 9H18.875ZM18.125 11C18.125 10.8376 18.2286 10.6978 18.3752 10.6461L17.9594 9.46727C17.3286 9.68977 16.875 10.2911 16.875 11H18.125ZM18.3752 10.6461C18.4134 10.6326 18.4551 10.625 18.5 10.625V9.375C18.3116 9.375 18.1293 9.40733 17.9594 9.46727L18.3752 10.6461ZM11.4931 6.68882C11.0998 7.36933 10.875 8.15935 10.875 9H12.125C12.125 8.38476 12.2891 7.80973 12.5754 7.31424L11.4931 6.68882ZM15.5 5.625C16.8567 5.625 18.0277 6.42552 18.564 7.58269L19.6982 7.05705C18.9647 5.47465 17.3614 4.375 15.5 4.375V5.625ZM18.564 7.58269C18.7634 8.01286 18.875 8.49254 18.875 9H20.125C20.125 8.30731 19.9723 7.64856 19.6982 7.05705L18.564 7.58269ZM15.5 4.375C14.0303 4.375 12.7206 5.06119 11.8744 6.1282L12.8538 6.90489C13.4731 6.12402 14.4281 5.625 15.5 5.625V4.375ZM11.8744 6.1282C11.7342 6.30496 11.6067 6.49228 11.4931 6.68882L12.5754 7.31424C12.6582 7.17087 12.7514 7.03408 12.8538 6.90489L11.8744 6.1282Z" fill="#545454"/>
</svg>
