<svg width="32" height="32" viewBox="0 0 32 32" fill="none" xmlns="http://www.w3.org/2000/svg">
<g id="Huge-icon/navigation maps/outline/map-people">
<path id="combo shape" d="M16.8161 10.7119C14.9616 9.36941 13.2629 7.68384 10.6667 7.97444C8.17699 8.25312 5.14665 10.3173 3.62955 11.4644C3.00719 11.9349 2.66669 12.6772 2.66669 13.4575V26.35C2.66669 27.488 4.03722 28.1478 4.98171 27.5131C6.59436 26.4295 8.78494 25.1989 10.6667 24.9882C15.0911 24.493 16.9089 29.7369 21.3334 29.2417C23.8231 28.963 26.8534 26.8989 28.3705 25.7518C28.9929 25.2812 29.3334 24.5389 29.3334 23.7587V10.8661C29.3334 9.72817 27.9628 9.0683 27.0183 9.703C26.6162 9.9732 26.1782 10.2525 25.718 10.5229" stroke="#28303F" stroke-width="1.5"/>
<path id="Vector" d="M24.8897 14.7435L24.6402 14.0363L24.8897 14.7435ZM16.7123 10.67L16.063 10.2948L16.063 10.2948L16.7123 10.67ZM26.1748 11.0945L25.4943 11.4098L26.1748 11.0945ZM17.1522 10.0234L17.7398 10.4894L17.1522 10.0234ZM23.25 5.33464C23.25 6.39318 22.3919 7.2513 21.3333 7.2513V8.7513C23.2203 8.7513 24.75 7.22161 24.75 5.33464H23.25ZM21.3333 7.2513C20.2748 7.2513 19.4167 6.39318 19.4167 5.33464H17.9167C17.9167 7.22161 19.4464 8.7513 21.3333 8.7513V7.2513ZM19.4167 5.33464C19.4167 4.27609 20.2748 3.41797 21.3333 3.41797V1.91797C19.4464 1.91797 17.9167 3.44766 17.9167 5.33464H19.4167ZM21.3333 3.41797C22.3919 3.41797 23.25 4.27609 23.25 5.33464H24.75C24.75 3.44766 23.2203 1.91797 21.3333 1.91797V3.41797ZM23.25 16.0013V18.668H24.75V16.0013H23.25ZM19.4167 18.668V16.0013H17.9167V18.668H19.4167ZM21.3333 20.5846C20.2748 20.5846 19.4167 19.7265 19.4167 18.668H17.9167C17.9167 20.5549 19.4464 22.0846 21.3333 22.0846V20.5846ZM23.25 18.668C23.25 19.7265 22.3919 20.5846 21.3333 20.5846V22.0846C23.2203 22.0846 24.75 20.5549 24.75 18.668H23.25ZM15.25 13.3346C15.25 14.4852 16.1827 15.418 17.3333 15.418V13.918C17.0112 13.918 16.75 13.6568 16.75 13.3346H15.25ZM19.4167 16.0013C19.4167 14.8507 18.4839 13.918 17.3333 13.918V15.418C17.6555 15.418 17.9167 15.6791 17.9167 16.0013H19.4167ZM25.9167 13.3346C25.9167 13.6568 25.6555 13.918 25.3333 13.918V15.418C26.4839 15.418 27.4167 14.4852 27.4167 13.3346H25.9167ZM24.75 16.0013C24.75 15.7484 24.9114 15.5312 25.1392 15.4508L24.6402 14.0363C23.8314 14.3215 23.25 15.0926 23.25 16.0013H24.75ZM25.1392 15.4508C25.1989 15.4298 25.2639 15.418 25.3333 15.418V13.918C25.0917 13.918 24.858 13.9594 24.6402 14.0363L25.1392 15.4508ZM16.063 10.2948C15.5457 11.1898 15.25 12.2288 15.25 13.3346H16.75C16.75 12.4993 16.9728 11.7183 17.3617 11.0453L16.063 10.2948ZM21.3333 8.7513C23.1759 8.7513 24.7661 9.8386 25.4943 11.4098L26.8553 10.7791C25.8905 8.69756 23.7816 7.2513 21.3333 7.2513V8.7513ZM25.4943 11.4098C25.7651 11.9942 25.9167 12.6457 25.9167 13.3346H27.4167C27.4167 12.4234 27.2158 11.557 26.8553 10.7791L25.4943 11.4098ZM21.3333 7.2513C19.4003 7.2513 17.6776 8.15375 16.5645 9.55734L17.7398 10.4894C18.5806 9.42914 19.8776 8.7513 21.3333 8.7513V7.2513ZM16.5645 9.55734C16.3801 9.78985 16.2123 10.0362 16.063 10.2948L17.3617 11.0453C17.4742 10.8506 17.6007 10.6648 17.7398 10.4894L16.5645 9.55734Z" fill="#28303F"/>
</g>
</svg>
