<svg width="36" height="36" viewBox="0 0 36 36" fill="none" xmlns="http://www.w3.org/2000/svg">
<path d="M21.3335 1.33337H8.00016C4.31826 1.33337 1.3335 4.31814 1.3335 8.00004V28C1.3335 31.6819 4.31826 34.6667 8.00016 34.6667H28.0002C31.6821 34.6667 34.6668 31.6819 34.6668 28V14.6667M33.0002 4.66671L30.8453 2.51189C30.1945 1.86101 29.1392 1.86101 28.4883 2.51189L26.3335 4.66671M29.6668 11.3334V2.16671M34.6668 21.3334L29.7685 17.8066C27.2232 15.9739 23.7446 16.1633 21.4134 18.2615L14.587 24.4052C12.2557 26.5034 8.77716 26.6928 6.23184 24.8602L1.3335 21.3334M16.3335 12.1667C16.3335 14.4679 14.468 16.3334 12.1668 16.3334C9.86564 16.3334 8.00016 14.4679 8.00016 12.1667C8.00016 9.86552 9.86564 8.00004 12.1668 8.00004C14.468 8.00004 16.3335 9.86552 16.3335 12.1667Z" stroke="#545454" stroke-width="1.75" stroke-linecap="round"/>
</svg>
