<svg width="20" height="22" viewBox="0 0 20 22" fill="none" xmlns="http://www.w3.org/2000/svg">
<path d="M10 5C11.1046 5 12 4.10457 12 3C12 1.89543 11.1046 1 10 1C8.89543 1 8 1.89543 8 3C8 4.10457 8.89543 5 10 5ZM10 5C12.2091 5 14 6.79086 14 9V11C14 11.5523 13.5523 12 13 12C12.4477 12 12 12.4477 12 13V16C12 17.1046 11.1046 18 10 18C8.89543 18 8 17.1046 8 16V13C8 12.4477 7.55228 12 7 12C6.44772 12 6 11.5523 6 11V9C6 6.79086 7.79086 5 10 5Z" stroke="#545454" stroke-width="1.25" stroke-linejoin="round"/>
<path d="M12 15.0742C16.008 15.3774 19 16.5722 19 17.9999C19 19.6567 14.9706 20.9999 10 20.9999C5.02944 20.9999 1 19.6567 1 17.9999C1 16.5722 3.99202 15.3774 8 15.0742" stroke="#545454" stroke-width="1.25" stroke-linecap="round"/>
</svg>
