<svg width="25" height="24" viewBox="0 0 25 24" fill="none" xmlns="http://www.w3.org/2000/svg">
<g id="Huge-icon/interface/outline/plus 01">
<path id="Vector" d="M10.5 18C10.5 19.1046 11.3954 20 12.5 20C13.6046 20 14.5 19.1046 14.5 18V14H18.5C19.6046 14 20.5 13.1046 20.5 12C20.5 10.8954 19.6046 10 18.5 10H14.5V6C14.5 4.89543 13.6046 4 12.5 4C11.3954 4 10.5 4.89543 10.5 6V10L6.5 10C5.39543 10 4.5 10.8954 4.5 12C4.5 13.1046 5.39543 14 6.5 14L10.5 14V18Z" stroke="#545454" stroke-width="1.5" stroke-linejoin="round"/>
</g>
</svg>
