<svg width="20" height="20" viewBox="0 0 20 20" fill="none" xmlns="http://www.w3.org/2000/svg">
<g id="Huge-icon/ecommerce/outline/receipt">
<path id="Vector 1874" d="M14.1666 5.8335L5.83325 5.8335" stroke="#28303F" stroke-width="1.25" stroke-linecap="round" stroke-linejoin="round"/>
<path id="Vector 1875" d="M14.1666 9.1665L5.83325 9.1665" stroke="#28303F" stroke-width="1.25" stroke-linecap="round" stroke-linejoin="round"/>
<path id="Vector 1876" d="M9.99992 12.5L5.83325 12.5" stroke="#28303F" stroke-width="1.25" stroke-linecap="round" stroke-linejoin="round"/>
<path id="Vector 1877" d="M15.8333 1.6665H4.16667C3.24619 1.6665 2.5 2.4127 2.5 3.33317V15.9618C2.5 17.1161 3.6451 17.9209 4.7312 17.5299L6.03267 17.0614C6.43934 16.915 6.88699 16.9323 7.28115 17.1097L9.31606 18.0254C9.75101 18.2211 10.249 18.2211 10.6839 18.0254L12.7189 17.1097C13.113 16.9323 13.5607 16.915 13.9673 17.0614L15.2688 17.5299C16.3549 17.9209 17.5 17.1161 17.5 15.9618V3.33317C17.5 2.4127 16.7538 1.6665 15.8333 1.6665Z" stroke="#28303F" stroke-width="1.25" stroke-linecap="round"/>
</g>
</svg>
