<svg width="33" height="32" viewBox="0 0 33 32" fill="none" xmlns="http://www.w3.org/2000/svg">
<g id="Huge-icon/time and date/outline/stopwatch-fast">
<path id="Ellipse 469" d="M27.8333 17.9998C27.8333 11.7406 22.7592 6.6665 16.5 6.6665C10.2408 6.6665 5.16666 11.7406 5.16666 17.9998C5.16666 24.2591 10.2408 29.3332 16.5 29.3332H27.8333" stroke="#FFFCF7" stroke-width="2" stroke-linecap="round"/>
<path id="Ellipse 479" d="M20.5 3.21859C19.2284 2.85895 17.8867 2.6665 16.5 2.6665C15.1133 2.6665 13.7716 2.85895 12.5 3.21859" stroke="#FFFCF7" stroke-width="2" stroke-linecap="round"/>
<path id="Ellipse 480" d="M18.5 18.6665C18.5 19.7711 17.6046 20.6665 16.5 20.6665C15.3954 20.6665 14.5 19.7711 14.5 18.6665C14.5 17.5619 15.3954 16.6665 16.5 16.6665C17.6046 16.6665 18.5 17.5619 18.5 18.6665Z" stroke="#FFFCF7" stroke-width="2"/>
<path id="Vector 1189" d="M16.5 16V12" stroke="#FFFCF7" stroke-width="2" stroke-linecap="round" stroke-linejoin="round"/>
<path id="Vector 1190" d="M21.8333 25.3335L27.8333 25.3335" stroke="#FFFCF7" stroke-width="2" stroke-linecap="round" stroke-linejoin="round"/>
<path id="Vector 1191" d="M24.5 21.3335H27.8333" stroke="#FFFCF7" stroke-width="2" stroke-linecap="round" stroke-linejoin="round"/>
</g>
</svg>
