<svg xmlns="http://www.w3.org/2000/svg" width="20" height="20" viewBox="0 0 20 20" fill="none">
<path fill-rule="evenodd" clip-rule="evenodd" d="M7.25018 2.75C7.25018 1.23122 8.4814 0 10.0002 0C11.519 0 12.7502 1.23122 12.7502 2.75V2.91565C15.1352 3.2059 17.3632 3.86798 19.3287 4.8258C19.7011 5.00725 19.8558 5.4562 19.6744 5.82855C19.4929 6.20091 19.044 6.35566 18.6716 6.1742C16.18 4.95998 13.2044 4.25 10.0002 4.25C6.79591 4.25 3.82036 4.95998 1.32872 6.1742C0.956372 6.35566 0.507421 6.20091 0.325965 5.82855C0.14451 5.4562 0.299263 5.00725 0.671615 4.8258C2.6371 3.86797 4.8652 3.2059 7.25018 2.91565V2.75ZM16.2656 16.283C16.1161 18.3763 14.3743 19.998 12.2757 19.998H7.72469C5.62613 19.998 3.88437 18.3763 3.73485 16.283L3.04663 6.6479C5.16395 5.90959 7.51894 5.49805 10.0002 5.49805C12.4815 5.49805 14.8365 5.90959 16.9538 6.6479L16.2656 16.283ZM8.75021 8.99805C8.75021 8.58383 8.41443 8.24805 8.00021 8.24805C7.586 8.24805 7.25021 8.58383 7.25021 8.99805V14.998C7.25021 15.4123 7.586 15.748 8.00021 15.748C8.41443 15.748 8.75021 15.4123 8.75021 14.998V8.99805ZM12.0002 8.24805C12.4144 8.24805 12.7502 8.58383 12.7502 8.99805V14.998C12.7502 15.4123 12.4144 15.748 12.0002 15.748C11.586 15.748 11.2502 15.4123 11.2502 14.998V8.99805C11.2502 8.58383 11.586 8.24805 12.0002 8.24805Z" fill="white"/>
</svg>