<svg width="21" height="20" viewBox="0 0 21 20" fill="none" xmlns="http://www.w3.org/2000/svg">
<g id="Huge-icon/device/outline/usb">
<path id="Vector 2878" d="M9.2 2.56536L9.7 1.8987C10.1 1.36536 10.9 1.36536 11.3 1.8987L11.8 2.56536C12.2944 3.2246 11.824 4.16536 11 4.16536H10C9.17595 4.16536 8.70557 3.2246 9.2 2.56536Z" fill="#545454"/>
<path id="Vector 2879" d="M10.5 4.16797V15.0013" stroke="#545454" stroke-width="1.5" stroke-linecap="round" stroke-linejoin="round"/>
<path id="Ellipse 1156" d="M16.75 5C16.75 5.69036 16.1904 6.25 15.5 6.25C14.8096 6.25 14.25 5.69036 14.25 5C14.25 4.30964 14.8096 3.75 15.5 3.75C16.1904 3.75 16.75 4.30964 16.75 5Z" fill="#545454"/>
<circle id="Ellipse 1158" cx="10.4997" cy="16.6667" r="1.66667" stroke="#545454" stroke-width="1.5"/>
<path id="Rectangle 1052" d="M4.25 6.41797C4.25 5.86568 4.69772 5.41797 5.25 5.41797H5.75C6.30228 5.41797 6.75 5.86568 6.75 6.41797V6.91797C6.75 7.47025 6.30228 7.91797 5.75 7.91797H5.25C4.69772 7.91797 4.25 7.47025 4.25 6.91797V6.41797Z" fill="#545454"/>
<path id="Vector 2880" d="M15.5 5.83203V7.61127C15.5 8.0417 15.2246 8.42384 14.8162 8.55996L10.5 9.9987" stroke="#545454" stroke-width="1.5" stroke-linecap="round" stroke-linejoin="round"/>
<path id="Vector 2881" d="M5.5 7.5V9.27924C5.5 9.70967 5.77543 10.0918 6.18377 10.2279L10.5 11.6667" stroke="#545454" stroke-width="1.5" stroke-linecap="round" stroke-linejoin="round"/>
</g>
</svg>
