<svg width="25" height="24" viewBox="0 0 25 24" fill="none" xmlns="http://www.w3.org/2000/svg">
<g id="Huge-icon/user/outline/users 01">
<ellipse id="Ellipse 293" cx="10.5" cy="17.5" rx="7" ry="3.5" stroke="#28303F" stroke-width="1.5" stroke-linejoin="round"/>
<circle id="Ellipse 294" cx="10.5" cy="7" r="4" stroke="#28303F" stroke-width="1.5" stroke-linejoin="round"/>
<path id="Subtract" fill-rule="evenodd" clip-rule="evenodd" d="M15.5448 10.2498C15.2228 10.7487 14.8288 11.1968 14.3774 11.5793C14.7319 11.6904 15.109 11.7502 15.5001 11.7502C17.5712 11.7502 19.2501 10.0713 19.2501 8.00024C19.2501 6.04446 17.7529 4.43838 15.8421 4.26562C16.1083 4.78459 16.3011 5.34742 16.4068 5.94039C17.1979 6.28911 17.7501 7.08019 17.7501 8.00024C17.7501 9.22794 16.7668 10.226 15.5448 10.2498Z" fill="#28303F"/>
<path id="Subtract_2" fill-rule="evenodd" clip-rule="evenodd" d="M19.4997 17.5575C19.4896 18.1717 19.3148 18.7618 19.0009 19.312C19.3693 19.2107 19.7144 19.0933 20.0312 18.9612C20.6284 18.7124 21.1606 18.3971 21.555 18.0086C21.952 17.6175 22.2501 17.1076 22.2501 16.5012C22.2501 15.8947 21.952 15.3849 21.555 14.9938C21.1606 14.6053 20.6284 14.2899 20.0312 14.0411C19.0086 13.615 17.6907 13.3406 16.2495 13.2695C17.2517 13.7786 18.0702 14.4181 18.6351 15.1455C18.9329 15.2286 19.2072 15.3228 19.4543 15.4257C19.943 15.6293 20.2894 15.8527 20.5023 16.0624C20.7125 16.2694 20.7501 16.4173 20.7501 16.5012C20.7501 16.5851 20.7125 16.7329 20.5023 16.94C20.2961 17.1431 19.9645 17.3591 19.4997 17.5575Z" fill="#28303F"/>
</g>
</svg>
