<svg width="20" height="20" viewBox="0 0 20 20" fill="none" xmlns="http://www.w3.org/2000/svg">
<g id="Huge-icon/interface/outline/user-rectangle">
<path id="Vector" d="M15.8325 18.2284C17.2707 17.8587 18.3334 16.5534 18.3334 14.9998V4.99984C18.3334 3.15889 16.841 1.6665 15.0001 1.6665H5.00008C3.15913 1.6665 1.66675 3.15889 1.66675 4.99984V14.9998C1.66675 16.5534 2.72951 17.8587 4.16767 18.2284M15.8325 18.2284C15.5664 18.2968 15.2875 18.3332 15.0001 18.3332H5.00008C4.71266 18.3332 4.43374 18.2968 4.16767 18.2284M15.8325 18.2284C15.7766 15.0551 13.1867 12.4998 10.0001 12.4998C6.81342 12.4998 4.22356 15.0551 4.16767 18.2284M12.5001 7.49984C12.5001 6.11913 11.3808 4.99984 10.0001 4.99984C8.61937 4.99984 7.50008 6.11913 7.50008 7.49984C7.50008 8.88055 8.61937 9.99984 10.0001 9.99984C11.3808 9.99984 12.5001 8.88055 12.5001 7.49984Z" stroke="#28303F" stroke-width="1.25"/>
</g>
</svg>
