<svg xmlns="http://www.w3.org/2000/svg" width="20" height="20" viewBox="0 0 20 20" fill="none">
  <g clip-path="url(#clip0_4633_65930)">
    <path d="M15.8324 18.2284C17.2706 17.8587 18.3334 16.5534 18.3334 14.9998V4.99984C18.3334 3.15889 16.841 1.6665 15 1.6665H5.00002C3.15907 1.6665 1.66669 3.15889 1.66669 4.99984V14.9998C1.66669 16.5534 2.72945 17.8587 4.16761 18.2284M15.8324 18.2284C15.5664 18.2968 15.2874 18.3332 15 18.3332H5.00002C4.7126 18.3332 4.43368 18.2968 4.16761 18.2284M15.8324 18.2284C15.7765 15.0551 13.1867 12.4998 10 12.4998C6.81336 12.4998 4.2235 15.0551 4.16761 18.2284M12.5 7.49984C12.5 6.11913 11.3807 4.99984 10 4.99984C8.61931 4.99984 7.50002 6.11913 7.50002 7.49984C7.50002 8.88055 8.61931 9.99984 10 9.99984C11.3807 9.99984 12.5 8.88055 12.5 7.49984Z" stroke="#272727" stroke-width="2"/>
  </g>
  <defs>
    <clipPath id="clip0_4633_65930">
      <rect width="20" height="20" fill="white"/>
    </clipPath>
  </defs>
</svg>