<svg width="40" height="40" viewBox="0 0 40 40" fill="none" xmlns="http://www.w3.org/2000/svg">
<path d="M30.9314 32.5813C29.2757 28.1529 25.006 24.9999 20 24.9999C14.994 24.9999 10.7243 28.1529 9.06861 32.5813M30.9314 32.5813C34.4453 29.5256 36.6667 25.0222 36.6667 19.9999C36.6667 10.7952 29.2047 3.33325 20 3.33325C10.7953 3.33325 3.33334 10.7952 3.33334 19.9999C3.33334 25.0222 5.55475 29.5256 9.06861 32.5813M30.9314 32.5813C28.0051 35.126 24.1825 36.6666 20 36.6666C15.8175 36.6666 11.9949 35.126 9.06861 32.5813" stroke="#FFFCF7" stroke-width="1.25" stroke-linejoin="round"/>
<circle cx="5" cy="5" r="5" transform="matrix(1 0 0 -1 15 20)" stroke="#FFFCF7" stroke-width="1.25" stroke-linejoin="round"/>
</svg>
