<svg width="20" height="18" viewBox="0 0 20 18" fill="none" xmlns="http://www.w3.org/2000/svg">
<g id="airplane mode">
<path id="Rectangle 972" d="M1.69345 13.6841L4.25816 11.7975C4.61474 11.5352 5.0337 11.3952 5.46225 11.3952L8.06108 11.3952C8.66051 11.3952 9.14644 11.9314 9.14644 12.5928L9.14644 16.8003C9.14644 18.0035 10.5742 18.4553 11.1522 17.435L13.9356 12.521C14.3322 11.8207 15.0279 11.3952 15.7763 11.3952L17.6048 11.3952C18.9276 11.3952 20 10.3228 20 9C20 7.67716 18.9276 6.60478 17.6048 6.60478L15.7763 6.60478C15.0279 6.60478 14.3322 6.17935 13.9356 5.47903L11.1522 0.565004C10.5742 -0.455328 9.14644 -0.0034889 9.14644 1.19974L9.14644 5.40718C9.14644 6.0686 8.66051 6.60478 8.06108 6.60478L5.46225 6.60478C5.0337 6.60478 4.61474 6.46481 4.25816 6.20251L1.69345 4.31587C0.767385 3.63464 -0.377114 4.74947 0.120632 5.84792L1.06356 7.92883C1.36912 8.60315 1.36912 9.39685 1.06356 10.0712L0.120632 12.1521C-0.377114 13.2505 0.767385 14.3654 1.69345 13.6841Z" fill="#E5E5E5"/>
</g>
</svg>
