<svg width="21" height="22" viewBox="0 0 21 22" fill="none" xmlns="http://www.w3.org/2000/svg">
<g id="alarm check">
<path id="combo sape" fill-rule="evenodd" clip-rule="evenodd" d="M6.50612 1.68736C6.85737 1.5214 7.0176 1.07921 6.864 0.699696C6.7104 0.320182 6.30114 0.147061 5.94989 0.313019C3.86119 1.29988 2.08892 2.92041 0.840365 4.94934C0.628104 5.29427 0.71483 5.75981 1.03407 5.98915C1.35332 6.21849 1.78419 6.12478 1.99645 5.77986C3.09898 3.98821 4.66399 2.55772 6.50612 1.68736ZM15.3976 0.313019C15.0463 0.147061 14.637 0.320182 14.4834 0.699696C14.3298 1.07921 14.4901 1.5214 14.8413 1.68736C16.6835 2.55772 18.2485 3.98821 19.351 5.77985C19.5633 6.12478 19.9941 6.21849 20.3134 5.98915C20.6326 5.75981 20.7193 5.29427 20.5071 4.94934C19.2585 2.92041 17.4863 1.29988 15.3976 0.313019ZM17.1447 17.6681C18.3071 16.1207 19.0037 14.1484 19.0037 12.0002C19.0037 7.02968 15.2743 3.00024 10.6739 3.00024C6.07346 3.00024 2.34409 7.02968 2.34409 12.0002C2.34409 14.1484 3.04062 16.1207 4.20296 17.668L2.66416 20.6333C2.47667 20.9946 2.59576 21.4518 2.93016 21.6543C3.26455 21.8569 3.68762 21.7282 3.87511 21.3669L5.21028 18.794C6.67283 20.1682 8.58342 21.0002 10.6739 21.0002C12.7643 21.0002 14.6749 20.1682 16.1374 18.794L17.4727 21.3669C17.6602 21.7282 18.0832 21.8569 18.4176 21.6543C18.752 21.4517 18.8711 20.9946 18.6836 20.6333L17.1447 17.6681ZM13.9074 9.43582C14.1959 9.70858 14.2251 10.1824 13.9727 10.4941L11.3165 13.774C10.7457 14.4788 9.76257 14.5732 9.08574 13.9882L7.46345 12.5859C7.16409 12.3271 7.11555 11.8552 7.35504 11.5317C7.59453 11.2083 8.03135 11.1558 8.33071 11.4146L9.953 12.8169C10.0497 12.9004 10.1901 12.887 10.2717 12.7863L12.9279 9.50638C13.1803 9.19465 13.6189 9.16306 13.9074 9.43582Z" fill="#545454"/>
</g>
</svg>
