<svg width="19" height="21" viewBox="0 0 19 21" fill="none" xmlns="http://www.w3.org/2000/svg">
<g id="calendar check">
<path id="combo sape" fill-rule="evenodd" clip-rule="evenodd" d="M6.53015 1C6.53015 0.585786 6.19437 0.25 5.78015 0.25C5.36594 0.25 5.03015 0.585786 5.03015 1V2.5H4.78015C2.57101 2.5 0.780151 4.29086 0.780151 6.5V7.25H18.7802V6.5C18.7802 4.29086 16.9893 2.5 14.7802 2.5H14.5302V1C14.5302 0.585786 14.1944 0.25 13.7802 0.25C13.3659 0.25 13.0302 0.585786 13.0302 1V2.5H6.53015V1ZM18.7802 8.75H0.780151V17C0.780151 19.2091 2.57101 21 4.78015 21H14.7802C16.9893 21 18.7802 19.2091 18.7802 17V8.75ZM13.3446 12.4939C13.6174 12.1822 13.5858 11.7083 13.2741 11.4356C12.9623 11.1628 12.4885 11.1944 12.2157 11.5061L9.34584 14.786C9.25774 14.8867 9.10599 14.9002 9.00152 14.8166L7.2487 13.4144C6.92525 13.1556 6.45328 13.208 6.19453 13.5315C5.93577 13.8549 5.98821 14.3269 6.31166 14.5857L8.06448 15.9879C8.79576 16.5729 9.85801 16.4786 10.4747 15.7738L13.3446 12.4939Z" fill="#545454"/>
</g>
</svg>
