<svg width="49" height="48" viewBox="0 0 49 48" fill="none" xmlns="http://www.w3.org/2000/svg">
<g id="Huge-icon/interface/solid/clear-rectangle">
<path id="Subtract" fill-rule="evenodd" clip-rule="evenodd" d="M36.5 4H12.5C8.08172 4 4.5 7.58172 4.5 12V36C4.5 40.4183 8.08172 44 12.5 44H36.5C40.9183 44 44.5 40.4183 44.5 36V12C44.5 7.58172 40.9183 4 36.5 4ZM32.5 25.5C33.3284 25.5 34 24.8284 34 24C34 23.1716 33.3284 22.5 32.5 22.5H16.5C15.6716 22.5 15 23.1716 15 24C15 24.8284 15.6716 25.5 16.5 25.5H32.5Z" fill="#EB9444"/>
</g>
</svg>
