<svg width="22" height="22" viewBox="0 0 22 22" fill="none" xmlns="http://www.w3.org/2000/svg">
<g id="image-tick">
<path id="combo shape" fill-rule="evenodd" clip-rule="evenodd" d="M1.53015 5C1.53015 3.20507 2.98523 1.75 4.78015 1.75H12.7802C13.1944 1.75 13.5302 1.41421 13.5302 1C13.5302 0.585786 13.1944 0.25 12.7802 0.25H4.78015C2.1568 0.25 0.0301514 2.37665 0.0301514 5V17C0.0301514 19.6234 2.1568 21.75 4.78015 21.75H16.7802C19.4035 21.75 21.5302 19.6234 21.5302 17V8C21.5302 7.58579 21.1944 7.25 20.7802 7.25C20.3659 7.25 20.0302 7.58579 20.0302 8V12.5091C19.985 12.473 19.9381 12.4387 19.8896 12.4063L17.5086 10.819C15.9221 9.76132 13.8097 9.9705 12.4614 11.3188L9.0989 14.6812C7.75065 16.0295 5.63817 16.2387 4.05168 15.181L1.53015 13.5V5ZM9.78015 7.5C9.78015 8.88071 8.66086 10 7.28015 10C5.89944 10 4.78015 8.88071 4.78015 7.5C4.78015 6.11929 5.89944 5 7.28015 5C8.66086 5 9.78015 6.11929 9.78015 7.5ZM20.3802 2.45004C20.6287 2.11867 20.5615 1.64857 20.2302 1.40004C19.8988 1.15152 19.4287 1.21867 19.1802 1.55004L16.872 4.62764C16.7807 4.74935 16.6028 4.76199 16.4952 4.65441L15.3105 3.46971C15.0176 3.17682 14.5427 3.17682 14.2498 3.46971C13.9569 3.76261 13.9569 4.23748 14.2498 4.53037L15.4345 5.71507C16.1876 6.46812 17.433 6.37961 18.072 5.52764L20.3802 2.45004Z" fill="#545454"/>
</g>
</svg>
