<svg width="40" height="41" viewBox="0 0 40 41" fill="none" xmlns="http://www.w3.org/2000/svg">
<path d="M36.6667 20.5002C36.6667 29.7049 29.2048 37.1668 20 37.1668C10.7953 37.1668 3.33337 29.7049 3.33337 20.5002C3.33337 11.2954 10.7953 3.8335 20 3.8335C29.2048 3.8335 36.6667 11.2954 36.6667 20.5002Z" fill="#EFA969"/>
<path d="M20 13.8335V15.5002M20 19.6668V27.1668M20 37.1668C29.2048 37.1668 36.6667 29.7049 36.6667 20.5002C36.6667 11.2954 29.2048 3.8335 20 3.8335C10.7953 3.8335 3.33337 11.2954 3.33337 20.5002C3.33337 29.7049 10.7953 37.1668 20 37.1668Z" stroke="#EFA969" stroke-linecap="round" stroke-linejoin="round"/>
<path d="M20.0002 13.8335V15.5002M20.0002 19.6668V27.1668M20.0002 37.1668C29.2049 37.1668 36.6668 29.7049 36.6668 20.5002C36.6668 11.2954 29.2049 3.8335 20.0002 3.8335C10.7954 3.8335 3.3335 11.2954 3.3335 20.5002C3.3335 29.7049 10.7954 37.1668 20.0002 37.1668Z" stroke="#FFFCF7" stroke-width="2" stroke-linecap="round" stroke-linejoin="round"/>
</svg>
