<svg xmlns="http://www.w3.org/2000/svg" width="29" height="29" viewBox="0 0 29 29" fill="none">
<path fill-rule="evenodd" clip-rule="evenodd" d="M22.7074 6.29273L23.667 7.25229V1.6665C23.667 1.11422 24.1147 0.666504 24.667 0.666504C25.2193 0.666504 25.667 1.11422 25.667 1.6665V7.25229L26.6266 6.29273C27.0171 5.90221 27.6502 5.90221 28.0408 6.29273C28.4313 6.68325 28.4313 7.31642 28.0408 7.70694L26.3169 9.4308C25.4057 10.342 23.9283 10.342 23.0171 9.4308L21.2932 7.70694C20.9027 7.31642 20.9027 6.68325 21.2932 6.29273C21.6837 5.90221 22.3169 5.90221 22.7074 6.29273ZM0.666992 13.6665C0.666992 11.4573 2.45785 9.66646 4.66699 9.66646L18.0003 9.66646C20.2095 9.66646 22.0003 11.4573 22.0003 13.6665V24.3331C22.0003 26.5423 20.2095 28.3331 18.0003 28.3331L4.66699 28.3331C2.45785 28.3331 0.666992 26.5423 0.666992 24.3331L0.666992 13.6665ZM5.20034 15.7332C5.53171 15.2914 6.15852 15.2018 6.60034 15.5332L9.53368 17.7332C10.6003 18.5332 12.067 18.5332 13.1337 17.7332L16.067 15.5332C16.5088 15.2018 17.1356 15.2914 17.467 15.7332C17.7984 16.175 17.7088 16.8018 17.267 17.1332L14.3337 19.3332C12.5559 20.6665 10.1115 20.6665 8.33368 19.3332L5.40034 17.1332C4.95852 16.8018 4.86897 16.175 5.20034 15.7332Z" fill="white"></path>
</svg>