<svg width="25" height="24" viewBox="0 0 25 24" fill="none" xmlns="http://www.w3.org/2000/svg">
<path fill-rule="evenodd" clip-rule="evenodd" d="M18.9478 10.5C18.9478 14.7802 15.478 18.25 11.1978 18.25C6.91755 18.25 3.44775 14.7802 3.44775 10.5C3.44775 6.21979 6.91755 2.75 11.1978 2.75C15.478 2.75 18.9478 6.21979 18.9478 10.5ZM11.1978 19.75C16.3064 19.75 20.4478 15.6086 20.4478 10.5C20.4478 5.39137 16.3064 1.25 11.1978 1.25C6.08912 1.25 1.94775 5.39137 1.94775 10.5C1.94775 15.6086 6.08912 19.75 11.1978 19.75ZM22.1194 21.4217C21.3483 22.1928 20.0981 22.1928 19.327 21.4217L17.4541 19.5488C18.5443 18.7936 19.4914 17.8465 20.2465 16.7563L22.1194 18.6292C22.8906 19.4003 22.8906 20.6506 22.1194 21.4217Z" fill="#28303F"/>
</svg>
