<svg width="18" height="14" viewBox="0 0 18 14" fill="none" xmlns="http://www.w3.org/2000/svg">
<g id="user">
<path id="combo shape" fill-rule="evenodd" clip-rule="evenodd" d="M9.09218 6C10.4553 6 11.5603 4.65685 11.5603 3C11.5603 1.34315 10.4553 0 9.09218 0C7.7291 0 6.6241 1.34315 6.6241 3C6.6241 4.65685 7.7291 6 9.09218 6ZM9.09218 14C11.8184 14 14.0284 12.6569 14.0284 11C14.0284 9.34315 11.8184 8 9.09218 8C6.36601 8 4.15601 9.34315 4.15601 11C4.15601 12.6569 6.36601 14 9.09218 14ZM4.47 8.01904C2.43822 8.17134 0.865234 9.22409 0.865234 10.5001C0.865234 11.5521 1.93432 12.4523 3.44819 12.8213C3.1099 12.2645 2.92197 11.6483 2.92197 11.0001C2.92197 9.85669 3.50671 8.81288 4.47 8.01904ZM15.2624 11.0001C15.2624 11.6483 15.0745 12.2645 14.7362 12.8213C16.2501 12.4523 17.3192 11.5521 17.3192 10.5001C17.3192 9.22409 15.7462 8.17134 13.7144 8.01904C14.6777 8.81288 15.2624 9.85669 15.2624 11.0001ZM12.1512 5.53539C12.557 4.8134 12.7943 3.94039 12.7943 3C12.7943 2.68794 12.7682 2.3833 12.7184 2.08914C12.8724 2.0312 13.036 2 13.2056 2C14.1144 2 14.851 2.89543 14.851 4C14.851 5.10457 14.1144 6 13.2056 6C12.8044 6 12.4367 5.82544 12.1512 5.53539ZM4.97871 2C5.14834 2 5.31197 2.0312 5.46594 2.08914C5.41619 2.3833 5.39006 2.68794 5.39006 3C5.39006 3.94039 5.62737 4.8134 6.03316 5.53539C5.74762 5.82544 5.37994 6 4.97871 6C4.06999 6 3.33332 5.10457 3.33332 4C3.33332 2.89543 4.06999 2 4.97871 2Z" fill="#545454"/>
</g>
</svg>
